G75*
%MOIN*%
%OFA0B0*%
%FSLAX25Y25*%
%IPPOS*%
%LPD*%
%AMOC8*
5,1,8,0,0,1.08239X$1,22.5*
%
%ADD10C,0.06000*%
%ADD11C,0.01600*%
D10*
X0016800Y0028800D02*
X0022800Y0028800D01*
X0022800Y0038800D02*
X0016800Y0038800D01*
X0016800Y0056800D02*
X0022800Y0056800D01*
X0022800Y0066800D02*
X0016800Y0066800D01*
X0016800Y0085800D02*
X0022800Y0085800D01*
X0022800Y0095800D02*
X0016800Y0095800D01*
X0038800Y0022800D02*
X0038800Y0016800D01*
X0048800Y0016800D02*
X0048800Y0022800D01*
X0058800Y0022800D02*
X0058800Y0016800D01*
X0068800Y0016800D02*
X0068800Y0022800D01*
X0098800Y0021800D02*
X0104800Y0021800D01*
X0104800Y0031800D02*
X0098800Y0031800D01*
X0096800Y0054800D02*
X0102800Y0054800D01*
X0102800Y0064800D02*
X0096800Y0064800D01*
X0096800Y0086800D02*
X0102800Y0086800D01*
X0102800Y0096800D02*
X0096800Y0096800D01*
D11*
X0034400Y0016187D02*
X0015517Y0016187D01*
X0014623Y0017081D02*
X0011412Y0018411D01*
X0007936Y0018411D01*
X0006600Y0017858D01*
X0006600Y0103853D01*
X0007936Y0103299D01*
X0011412Y0103299D01*
X0014623Y0104629D01*
X0017081Y0107087D01*
X0018411Y0110298D01*
X0018411Y0113774D01*
X0017858Y0115110D01*
X0103853Y0115110D01*
X0103299Y0113774D01*
X0103299Y0110298D01*
X0104629Y0107087D01*
X0107087Y0104629D01*
X0110298Y0103299D01*
X0113774Y0103299D01*
X0115110Y0103853D01*
X0115110Y0017858D01*
X0113774Y0018411D01*
X0110298Y0018411D01*
X0107087Y0017081D01*
X0104629Y0014623D01*
X0103299Y0011412D01*
X0103299Y0007936D01*
X0103853Y0006600D01*
X0017858Y0006600D01*
X0018411Y0007936D01*
X0018411Y0011412D01*
X0017081Y0014623D01*
X0014623Y0017081D01*
X0012923Y0017785D02*
X0034400Y0017785D01*
X0034400Y0019384D02*
X0006600Y0019384D01*
X0006600Y0020982D02*
X0034400Y0020982D01*
X0034400Y0022581D02*
X0006600Y0022581D01*
X0006600Y0024179D02*
X0015488Y0024179D01*
X0015676Y0024118D02*
X0016422Y0024000D01*
X0019600Y0024000D01*
X0019600Y0028600D01*
X0020000Y0028600D01*
X0020000Y0029000D01*
X0019600Y0029000D01*
X0019600Y0033600D01*
X0016422Y0033600D01*
X0015676Y0033482D01*
X0014957Y0033248D01*
X0014284Y0032905D01*
X0013673Y0032461D01*
X0013139Y0031927D01*
X0012695Y0031316D01*
X0012352Y0030643D01*
X0012118Y0029924D01*
X0012000Y0029178D01*
X0012000Y0029000D01*
X0019600Y0029000D01*
X0019600Y0028600D01*
X0012000Y0028600D01*
X0012000Y0028422D01*
X0012118Y0027676D01*
X0012352Y0026957D01*
X0012695Y0026284D01*
X0013139Y0025673D01*
X0013673Y0025139D01*
X0014284Y0024695D01*
X0014957Y0024352D01*
X0015676Y0024118D01*
X0013063Y0025778D02*
X0006600Y0025778D01*
X0006600Y0027376D02*
X0012216Y0027376D01*
X0012329Y0030573D02*
X0006600Y0030573D01*
X0006600Y0032172D02*
X0013384Y0032172D01*
X0014284Y0034695D02*
X0014957Y0034352D01*
X0015676Y0034118D01*
X0016422Y0034000D01*
X0019600Y0034000D01*
X0019600Y0038600D01*
X0020000Y0038600D01*
X0020000Y0039000D01*
X0019600Y0039000D01*
X0019600Y0043600D01*
X0016422Y0043600D01*
X0015676Y0043482D01*
X0014957Y0043248D01*
X0014284Y0042905D01*
X0013673Y0042461D01*
X0013139Y0041927D01*
X0012695Y0041316D01*
X0012352Y0040643D01*
X0012118Y0039924D01*
X0012000Y0039178D01*
X0012000Y0039000D01*
X0019600Y0039000D01*
X0019600Y0038600D01*
X0012000Y0038600D01*
X0012000Y0038422D01*
X0012118Y0037676D01*
X0012352Y0036957D01*
X0012695Y0036284D01*
X0013139Y0035673D01*
X0013673Y0035139D01*
X0014284Y0034695D01*
X0013443Y0035369D02*
X0006600Y0035369D01*
X0006600Y0036967D02*
X0012348Y0036967D01*
X0012000Y0038566D02*
X0006600Y0038566D01*
X0006600Y0040164D02*
X0012196Y0040164D01*
X0013019Y0041763D02*
X0006600Y0041763D01*
X0006600Y0043361D02*
X0015305Y0043361D01*
X0019600Y0043361D02*
X0020000Y0043361D01*
X0020000Y0043600D02*
X0020000Y0039000D01*
X0027600Y0039000D01*
X0027600Y0039178D01*
X0027482Y0039924D01*
X0027248Y0040643D01*
X0026905Y0041316D01*
X0026461Y0041927D01*
X0025927Y0042461D01*
X0025316Y0042905D01*
X0024643Y0043248D01*
X0023924Y0043482D01*
X0023178Y0043600D01*
X0020000Y0043600D01*
X0020000Y0041763D02*
X0019600Y0041763D01*
X0019600Y0040164D02*
X0020000Y0040164D01*
X0020000Y0038600D02*
X0027600Y0038600D01*
X0027600Y0038422D01*
X0027482Y0037676D01*
X0027248Y0036957D01*
X0026905Y0036284D01*
X0026461Y0035673D01*
X0025927Y0035139D01*
X0025316Y0034695D01*
X0024643Y0034352D01*
X0023924Y0034118D01*
X0023178Y0034000D01*
X0020000Y0034000D01*
X0020000Y0038600D01*
X0020000Y0038566D02*
X0019600Y0038566D01*
X0019600Y0036967D02*
X0020000Y0036967D01*
X0020000Y0035369D02*
X0019600Y0035369D01*
X0020000Y0033600D02*
X0020000Y0029000D01*
X0027600Y0029000D01*
X0027600Y0029178D01*
X0027482Y0029924D01*
X0027248Y0030643D01*
X0026905Y0031316D01*
X0026461Y0031927D01*
X0025927Y0032461D01*
X0025316Y0032905D01*
X0024643Y0033248D01*
X0023924Y0033482D01*
X0023178Y0033600D01*
X0020000Y0033600D01*
X0020000Y0032172D02*
X0019600Y0032172D01*
X0019600Y0030573D02*
X0020000Y0030573D01*
X0020000Y0028975D02*
X0094920Y0028975D01*
X0095139Y0028673D02*
X0095673Y0028139D01*
X0096284Y0027695D01*
X0096957Y0027352D01*
X0097676Y0027118D01*
X0098422Y0027000D01*
X0101600Y0027000D01*
X0101600Y0031600D01*
X0102000Y0031600D01*
X0102000Y0032000D01*
X0101600Y0032000D01*
X0101600Y0036600D01*
X0098422Y0036600D01*
X0097676Y0036482D01*
X0096957Y0036248D01*
X0096284Y0035905D01*
X0095673Y0035461D01*
X0095139Y0034927D01*
X0094695Y0034316D01*
X0094352Y0033643D01*
X0094118Y0032924D01*
X0094000Y0032178D01*
X0094000Y0032000D01*
X0101600Y0032000D01*
X0101600Y0031600D01*
X0094000Y0031600D01*
X0094000Y0031422D01*
X0094118Y0030676D01*
X0094352Y0029957D01*
X0094695Y0029284D01*
X0095139Y0028673D01*
X0096909Y0027376D02*
X0027384Y0027376D01*
X0027482Y0027676D02*
X0027600Y0028422D01*
X0027600Y0028600D01*
X0020000Y0028600D01*
X0020000Y0024000D01*
X0023178Y0024000D01*
X0023924Y0024118D01*
X0024643Y0024352D01*
X0025316Y0024695D01*
X0025927Y0025139D01*
X0026461Y0025673D01*
X0026905Y0026284D01*
X0027248Y0026957D01*
X0027482Y0027676D01*
X0026537Y0025778D02*
X0035555Y0025778D01*
X0035070Y0025292D02*
X0036308Y0026530D01*
X0037925Y0027200D01*
X0039675Y0027200D01*
X0041292Y0026530D01*
X0042530Y0025292D01*
X0043200Y0023675D01*
X0043200Y0015925D01*
X0042530Y0014308D01*
X0041292Y0013070D01*
X0039675Y0012400D01*
X0037925Y0012400D01*
X0036308Y0013070D01*
X0035070Y0014308D01*
X0034400Y0015925D01*
X0034400Y0023675D01*
X0035070Y0025292D01*
X0034609Y0024179D02*
X0024112Y0024179D01*
X0020000Y0024179D02*
X0019600Y0024179D01*
X0019600Y0025778D02*
X0020000Y0025778D01*
X0020000Y0027376D02*
X0019600Y0027376D01*
X0019600Y0028975D02*
X0006600Y0028975D01*
X0006600Y0033770D02*
X0094417Y0033770D01*
X0094000Y0032172D02*
X0026216Y0032172D01*
X0027271Y0030573D02*
X0094152Y0030573D01*
X0095581Y0035369D02*
X0026157Y0035369D01*
X0027252Y0036967D02*
X0115110Y0036967D01*
X0115110Y0035369D02*
X0108019Y0035369D01*
X0107927Y0035461D02*
X0107316Y0035905D01*
X0106643Y0036248D01*
X0105924Y0036482D01*
X0105178Y0036600D01*
X0102000Y0036600D01*
X0102000Y0032000D01*
X0109600Y0032000D01*
X0109600Y0032178D01*
X0109482Y0032924D01*
X0109248Y0033643D01*
X0108905Y0034316D01*
X0108461Y0034927D01*
X0107927Y0035461D01*
X0109183Y0033770D02*
X0115110Y0033770D01*
X0115110Y0032172D02*
X0109600Y0032172D01*
X0109600Y0031600D02*
X0102000Y0031600D01*
X0102000Y0027000D01*
X0105178Y0027000D01*
X0105924Y0027118D01*
X0106643Y0027352D01*
X0107316Y0027695D01*
X0107927Y0028139D01*
X0108461Y0028673D01*
X0108905Y0029284D01*
X0109248Y0029957D01*
X0109482Y0030676D01*
X0109600Y0031422D01*
X0109600Y0031600D01*
X0109448Y0030573D02*
X0115110Y0030573D01*
X0115110Y0028975D02*
X0108680Y0028975D01*
X0106691Y0027376D02*
X0115110Y0027376D01*
X0115110Y0025778D02*
X0107491Y0025778D01*
X0107316Y0025905D02*
X0106643Y0026248D01*
X0105924Y0026482D01*
X0105178Y0026600D01*
X0102000Y0026600D01*
X0102000Y0022000D01*
X0101600Y0022000D01*
X0101600Y0026600D01*
X0098422Y0026600D01*
X0097676Y0026482D01*
X0096957Y0026248D01*
X0096284Y0025905D01*
X0095673Y0025461D01*
X0095139Y0024927D01*
X0094695Y0024316D01*
X0094352Y0023643D01*
X0094118Y0022924D01*
X0094000Y0022178D01*
X0094000Y0022000D01*
X0101600Y0022000D01*
X0101600Y0021600D01*
X0102000Y0021600D01*
X0102000Y0022000D01*
X0109600Y0022000D01*
X0109600Y0022178D01*
X0109482Y0022924D01*
X0109248Y0023643D01*
X0108905Y0024316D01*
X0108461Y0024927D01*
X0107927Y0025461D01*
X0107316Y0025905D01*
X0108975Y0024179D02*
X0115110Y0024179D01*
X0115110Y0022581D02*
X0109536Y0022581D01*
X0109600Y0021600D02*
X0102000Y0021600D01*
X0102000Y0017000D01*
X0105178Y0017000D01*
X0105924Y0017118D01*
X0106643Y0017352D01*
X0107316Y0017695D01*
X0107927Y0018139D01*
X0108461Y0018673D01*
X0108905Y0019284D01*
X0109248Y0019957D01*
X0109482Y0020676D01*
X0109600Y0021422D01*
X0109600Y0021600D01*
X0109530Y0020982D02*
X0115110Y0020982D01*
X0115110Y0019384D02*
X0108956Y0019384D01*
X0108787Y0017785D02*
X0107440Y0017785D01*
X0106193Y0016187D02*
X0073200Y0016187D01*
X0073200Y0015925D02*
X0072530Y0014308D01*
X0071292Y0013070D01*
X0069675Y0012400D01*
X0067925Y0012400D01*
X0066308Y0013070D01*
X0065070Y0014308D01*
X0064400Y0015925D01*
X0064400Y0023675D01*
X0065070Y0025292D01*
X0066308Y0026530D01*
X0067925Y0027200D01*
X0069675Y0027200D01*
X0071292Y0026530D01*
X0072530Y0025292D01*
X0073200Y0023675D01*
X0073200Y0015925D01*
X0073200Y0017785D02*
X0096160Y0017785D01*
X0096284Y0017695D02*
X0096957Y0017352D01*
X0097676Y0017118D01*
X0098422Y0017000D01*
X0101600Y0017000D01*
X0101600Y0021600D01*
X0094000Y0021600D01*
X0094000Y0021422D01*
X0094118Y0020676D01*
X0094352Y0019957D01*
X0094695Y0019284D01*
X0095139Y0018673D01*
X0095673Y0018139D01*
X0096284Y0017695D01*
X0094644Y0019384D02*
X0073200Y0019384D01*
X0073200Y0020982D02*
X0094070Y0020982D01*
X0094064Y0022581D02*
X0073200Y0022581D01*
X0072991Y0024179D02*
X0094625Y0024179D01*
X0096109Y0025778D02*
X0072045Y0025778D01*
X0065555Y0025778D02*
X0062045Y0025778D01*
X0062530Y0025292D02*
X0061292Y0026530D01*
X0059675Y0027200D01*
X0057925Y0027200D01*
X0056308Y0026530D01*
X0055070Y0025292D01*
X0054400Y0023675D01*
X0054400Y0015925D01*
X0055070Y0014308D01*
X0056308Y0013070D01*
X0057925Y0012400D01*
X0059675Y0012400D01*
X0061292Y0013070D01*
X0062530Y0014308D01*
X0063200Y0015925D01*
X0063200Y0023675D01*
X0062530Y0025292D01*
X0062991Y0024179D02*
X0064609Y0024179D01*
X0064400Y0022581D02*
X0063200Y0022581D01*
X0063200Y0020982D02*
X0064400Y0020982D01*
X0064400Y0019384D02*
X0063200Y0019384D01*
X0063200Y0017785D02*
X0064400Y0017785D01*
X0064400Y0016187D02*
X0063200Y0016187D01*
X0062646Y0014588D02*
X0064954Y0014588D01*
X0066501Y0012990D02*
X0061099Y0012990D01*
X0056501Y0012990D02*
X0051099Y0012990D01*
X0051292Y0013070D02*
X0052530Y0014308D01*
X0053200Y0015925D01*
X0053200Y0023675D01*
X0052530Y0025292D01*
X0051292Y0026530D01*
X0049675Y0027200D01*
X0047925Y0027200D01*
X0046308Y0026530D01*
X0045070Y0025292D01*
X0044400Y0023675D01*
X0044400Y0015925D01*
X0045070Y0014308D01*
X0046308Y0013070D01*
X0047925Y0012400D01*
X0049675Y0012400D01*
X0051292Y0013070D01*
X0052646Y0014588D02*
X0054954Y0014588D01*
X0054400Y0016187D02*
X0053200Y0016187D01*
X0053200Y0017785D02*
X0054400Y0017785D01*
X0054400Y0019384D02*
X0053200Y0019384D01*
X0053200Y0020982D02*
X0054400Y0020982D01*
X0054400Y0022581D02*
X0053200Y0022581D01*
X0052991Y0024179D02*
X0054609Y0024179D01*
X0055555Y0025778D02*
X0052045Y0025778D01*
X0045555Y0025778D02*
X0042045Y0025778D01*
X0042991Y0024179D02*
X0044609Y0024179D01*
X0044400Y0022581D02*
X0043200Y0022581D01*
X0043200Y0020982D02*
X0044400Y0020982D01*
X0044400Y0019384D02*
X0043200Y0019384D01*
X0043200Y0017785D02*
X0044400Y0017785D01*
X0044400Y0016187D02*
X0043200Y0016187D01*
X0042646Y0014588D02*
X0044954Y0014588D01*
X0046501Y0012990D02*
X0041099Y0012990D01*
X0036501Y0012990D02*
X0017758Y0012990D01*
X0018411Y0011391D02*
X0103299Y0011391D01*
X0103299Y0009793D02*
X0018411Y0009793D01*
X0018411Y0008194D02*
X0103299Y0008194D01*
X0103953Y0012990D02*
X0071099Y0012990D01*
X0072646Y0014588D02*
X0104615Y0014588D01*
X0102000Y0017785D02*
X0101600Y0017785D01*
X0101600Y0019384D02*
X0102000Y0019384D01*
X0102000Y0020982D02*
X0101600Y0020982D01*
X0101600Y0022581D02*
X0102000Y0022581D01*
X0102000Y0024179D02*
X0101600Y0024179D01*
X0101600Y0025778D02*
X0102000Y0025778D01*
X0102000Y0027376D02*
X0101600Y0027376D01*
X0101600Y0028975D02*
X0102000Y0028975D01*
X0102000Y0030573D02*
X0101600Y0030573D01*
X0101600Y0032172D02*
X0102000Y0032172D01*
X0102000Y0033770D02*
X0101600Y0033770D01*
X0101600Y0035369D02*
X0102000Y0035369D01*
X0115110Y0038566D02*
X0027600Y0038566D01*
X0027404Y0040164D02*
X0115110Y0040164D01*
X0115110Y0041763D02*
X0026581Y0041763D01*
X0024295Y0043361D02*
X0115110Y0043361D01*
X0115110Y0044960D02*
X0006600Y0044960D01*
X0006600Y0046558D02*
X0115110Y0046558D01*
X0115110Y0048157D02*
X0006600Y0048157D01*
X0006600Y0049755D02*
X0115110Y0049755D01*
X0115110Y0051354D02*
X0105576Y0051354D01*
X0105292Y0051070D02*
X0103675Y0050400D01*
X0095925Y0050400D01*
X0094308Y0051070D01*
X0093070Y0052308D01*
X0092400Y0053925D01*
X0092400Y0055675D01*
X0093070Y0057292D01*
X0094308Y0058530D01*
X0095925Y0059200D01*
X0103675Y0059200D01*
X0105292Y0058530D01*
X0106530Y0057292D01*
X0107200Y0055675D01*
X0107200Y0053925D01*
X0106530Y0052308D01*
X0105292Y0051070D01*
X0106797Y0052952D02*
X0115110Y0052952D01*
X0115110Y0054551D02*
X0107200Y0054551D01*
X0107004Y0056149D02*
X0115110Y0056149D01*
X0115110Y0057748D02*
X0106075Y0057748D01*
X0105292Y0061070D02*
X0103675Y0060400D01*
X0095925Y0060400D01*
X0094308Y0061070D01*
X0093070Y0062308D01*
X0092400Y0063925D01*
X0092400Y0065675D01*
X0093070Y0067292D01*
X0094308Y0068530D01*
X0095925Y0069200D01*
X0103675Y0069200D01*
X0105292Y0068530D01*
X0106530Y0067292D01*
X0107200Y0065675D01*
X0107200Y0063925D01*
X0106530Y0062308D01*
X0105292Y0061070D01*
X0104991Y0060945D02*
X0115110Y0060945D01*
X0115110Y0062543D02*
X0106628Y0062543D01*
X0107200Y0064142D02*
X0115110Y0064142D01*
X0115110Y0065740D02*
X0107173Y0065740D01*
X0106484Y0067339D02*
X0115110Y0067339D01*
X0115110Y0068937D02*
X0104309Y0068937D01*
X0095291Y0068937D02*
X0026677Y0068937D01*
X0026530Y0069292D02*
X0025292Y0070530D01*
X0023675Y0071200D01*
X0015925Y0071200D01*
X0014308Y0070530D01*
X0013070Y0069292D01*
X0012400Y0067675D01*
X0012400Y0065925D01*
X0013070Y0064308D01*
X0014308Y0063070D01*
X0015925Y0062400D01*
X0023675Y0062400D01*
X0025292Y0063070D01*
X0026530Y0064308D01*
X0027200Y0065925D01*
X0027200Y0067675D01*
X0026530Y0069292D01*
X0027200Y0067339D02*
X0093116Y0067339D01*
X0092427Y0065740D02*
X0027124Y0065740D01*
X0026364Y0064142D02*
X0092400Y0064142D01*
X0092972Y0062543D02*
X0024021Y0062543D01*
X0023675Y0061200D02*
X0025292Y0060530D01*
X0026530Y0059292D01*
X0027200Y0057675D01*
X0027200Y0055925D01*
X0026530Y0054308D01*
X0025292Y0053070D01*
X0023675Y0052400D01*
X0015925Y0052400D01*
X0014308Y0053070D01*
X0013070Y0054308D01*
X0012400Y0055925D01*
X0012400Y0057675D01*
X0013070Y0059292D01*
X0014308Y0060530D01*
X0015925Y0061200D01*
X0023675Y0061200D01*
X0024291Y0060945D02*
X0094609Y0060945D01*
X0093525Y0057748D02*
X0027170Y0057748D01*
X0027200Y0056149D02*
X0092596Y0056149D01*
X0092400Y0054551D02*
X0026631Y0054551D01*
X0025009Y0052952D02*
X0092803Y0052952D01*
X0094024Y0051354D02*
X0006600Y0051354D01*
X0006600Y0052952D02*
X0014591Y0052952D01*
X0012969Y0054551D02*
X0006600Y0054551D01*
X0006600Y0056149D02*
X0012400Y0056149D01*
X0012430Y0057748D02*
X0006600Y0057748D01*
X0006600Y0059346D02*
X0013124Y0059346D01*
X0015309Y0060945D02*
X0006600Y0060945D01*
X0006600Y0062543D02*
X0015578Y0062543D01*
X0013236Y0064142D02*
X0006600Y0064142D01*
X0006600Y0065740D02*
X0012476Y0065740D01*
X0012400Y0067339D02*
X0006600Y0067339D01*
X0006600Y0068937D02*
X0012923Y0068937D01*
X0014322Y0070536D02*
X0006600Y0070536D01*
X0006600Y0072134D02*
X0115110Y0072134D01*
X0115110Y0070536D02*
X0025278Y0070536D01*
X0023675Y0081400D02*
X0015925Y0081400D01*
X0014308Y0082070D01*
X0013070Y0083308D01*
X0012400Y0084925D01*
X0012400Y0086675D01*
X0013070Y0088292D01*
X0014308Y0089530D01*
X0015925Y0090200D01*
X0023675Y0090200D01*
X0025292Y0089530D01*
X0026530Y0088292D01*
X0027200Y0086675D01*
X0027200Y0084925D01*
X0026530Y0083308D01*
X0025292Y0082070D01*
X0023675Y0081400D01*
X0024461Y0081726D02*
X0115110Y0081726D01*
X0115110Y0083324D02*
X0105547Y0083324D01*
X0105292Y0083070D02*
X0106530Y0084308D01*
X0107200Y0085925D01*
X0107200Y0087675D01*
X0106530Y0089292D01*
X0105292Y0090530D01*
X0103675Y0091200D01*
X0095925Y0091200D01*
X0094308Y0090530D01*
X0093070Y0089292D01*
X0092400Y0087675D01*
X0092400Y0085925D01*
X0093070Y0084308D01*
X0094308Y0083070D01*
X0095925Y0082400D01*
X0103675Y0082400D01*
X0105292Y0083070D01*
X0106785Y0084923D02*
X0115110Y0084923D01*
X0115110Y0086521D02*
X0107200Y0086521D01*
X0107016Y0088120D02*
X0115110Y0088120D01*
X0115110Y0089718D02*
X0106104Y0089718D01*
X0105292Y0093070D02*
X0103675Y0092400D01*
X0095925Y0092400D01*
X0094308Y0093070D01*
X0093070Y0094308D01*
X0092400Y0095925D01*
X0092400Y0097675D01*
X0093070Y0099292D01*
X0094308Y0100530D01*
X0095925Y0101200D01*
X0103675Y0101200D01*
X0105292Y0100530D01*
X0106530Y0099292D01*
X0107200Y0097675D01*
X0107200Y0095925D01*
X0106530Y0094308D01*
X0105292Y0093070D01*
X0104919Y0092915D02*
X0115110Y0092915D01*
X0115110Y0091317D02*
X0006600Y0091317D01*
X0006600Y0092915D02*
X0013462Y0092915D01*
X0013070Y0093308D02*
X0014308Y0092070D01*
X0015925Y0091400D01*
X0023675Y0091400D01*
X0025292Y0092070D01*
X0026530Y0093308D01*
X0027200Y0094925D01*
X0027200Y0096675D01*
X0026530Y0098292D01*
X0025292Y0099530D01*
X0023675Y0100200D01*
X0015925Y0100200D01*
X0014308Y0099530D01*
X0013070Y0098292D01*
X0012400Y0096675D01*
X0012400Y0094925D01*
X0013070Y0093308D01*
X0012570Y0094514D02*
X0006600Y0094514D01*
X0006600Y0096112D02*
X0012400Y0096112D01*
X0012829Y0097711D02*
X0006600Y0097711D01*
X0006600Y0099309D02*
X0014087Y0099309D01*
X0013357Y0104105D02*
X0108354Y0104105D01*
X0106013Y0105703D02*
X0015697Y0105703D01*
X0017170Y0107302D02*
X0104540Y0107302D01*
X0103878Y0108900D02*
X0017832Y0108900D01*
X0018411Y0110499D02*
X0103299Y0110499D01*
X0103299Y0112097D02*
X0018411Y0112097D01*
X0018411Y0113696D02*
X0103299Y0113696D01*
X0115110Y0102506D02*
X0006600Y0102506D01*
X0006600Y0100908D02*
X0095219Y0100908D01*
X0093087Y0099309D02*
X0025513Y0099309D01*
X0026771Y0097711D02*
X0092415Y0097711D01*
X0092400Y0096112D02*
X0027200Y0096112D01*
X0027030Y0094514D02*
X0092984Y0094514D01*
X0094681Y0092915D02*
X0026138Y0092915D01*
X0024839Y0089718D02*
X0093496Y0089718D01*
X0092584Y0088120D02*
X0026602Y0088120D01*
X0027200Y0086521D02*
X0092400Y0086521D01*
X0092815Y0084923D02*
X0027199Y0084923D01*
X0026537Y0083324D02*
X0094053Y0083324D01*
X0106615Y0094514D02*
X0115110Y0094514D01*
X0115110Y0096112D02*
X0107200Y0096112D01*
X0107185Y0097711D02*
X0115110Y0097711D01*
X0115110Y0099309D02*
X0106513Y0099309D01*
X0104381Y0100908D02*
X0115110Y0100908D01*
X0115110Y0080127D02*
X0006600Y0080127D01*
X0006600Y0078529D02*
X0115110Y0078529D01*
X0115110Y0076930D02*
X0006600Y0076930D01*
X0006600Y0075332D02*
X0115110Y0075332D01*
X0115110Y0073733D02*
X0006600Y0073733D01*
X0006600Y0081726D02*
X0015139Y0081726D01*
X0013063Y0083324D02*
X0006600Y0083324D01*
X0006600Y0084923D02*
X0012401Y0084923D01*
X0012400Y0086521D02*
X0006600Y0086521D01*
X0006600Y0088120D02*
X0012998Y0088120D01*
X0014761Y0089718D02*
X0006600Y0089718D01*
X0026476Y0059346D02*
X0115110Y0059346D01*
X0034954Y0014588D02*
X0017095Y0014588D01*
M02*
