G75*
%MOIN*%
%OFA0B0*%
%FSLAX25Y25*%
%IPPOS*%
%LPD*%
%AMOC8*
5,1,8,0,0,1.08239X$1,22.5*
%
%ADD10C,0.00000*%
%ADD11R,0.07087X0.06299*%
%ADD12C,0.06000*%
%ADD13R,0.07087X0.14173*%
%ADD14R,0.04724X0.04724*%
%ADD15R,0.05118X0.05906*%
%ADD16R,0.02165X0.03937*%
%ADD17C,0.01600*%
D10*
X0001800Y0001800D02*
X0001800Y0119910D01*
X0119910Y0119910D01*
X0119910Y0001800D01*
X0001800Y0001800D01*
X0005737Y0009674D02*
X0005739Y0009799D01*
X0005745Y0009924D01*
X0005755Y0010048D01*
X0005769Y0010172D01*
X0005786Y0010296D01*
X0005808Y0010419D01*
X0005834Y0010541D01*
X0005863Y0010663D01*
X0005896Y0010783D01*
X0005934Y0010902D01*
X0005974Y0011021D01*
X0006019Y0011137D01*
X0006067Y0011252D01*
X0006119Y0011366D01*
X0006175Y0011478D01*
X0006234Y0011588D01*
X0006296Y0011696D01*
X0006362Y0011803D01*
X0006431Y0011907D01*
X0006504Y0012008D01*
X0006579Y0012108D01*
X0006658Y0012205D01*
X0006740Y0012299D01*
X0006825Y0012391D01*
X0006912Y0012480D01*
X0007003Y0012566D01*
X0007096Y0012649D01*
X0007192Y0012730D01*
X0007290Y0012807D01*
X0007390Y0012881D01*
X0007493Y0012952D01*
X0007598Y0013019D01*
X0007706Y0013084D01*
X0007815Y0013144D01*
X0007926Y0013202D01*
X0008039Y0013255D01*
X0008153Y0013305D01*
X0008269Y0013352D01*
X0008386Y0013394D01*
X0008505Y0013433D01*
X0008625Y0013469D01*
X0008746Y0013500D01*
X0008868Y0013528D01*
X0008990Y0013551D01*
X0009114Y0013571D01*
X0009238Y0013587D01*
X0009362Y0013599D01*
X0009487Y0013607D01*
X0009612Y0013611D01*
X0009736Y0013611D01*
X0009861Y0013607D01*
X0009986Y0013599D01*
X0010110Y0013587D01*
X0010234Y0013571D01*
X0010358Y0013551D01*
X0010480Y0013528D01*
X0010602Y0013500D01*
X0010723Y0013469D01*
X0010843Y0013433D01*
X0010962Y0013394D01*
X0011079Y0013352D01*
X0011195Y0013305D01*
X0011309Y0013255D01*
X0011422Y0013202D01*
X0011533Y0013144D01*
X0011643Y0013084D01*
X0011750Y0013019D01*
X0011855Y0012952D01*
X0011958Y0012881D01*
X0012058Y0012807D01*
X0012156Y0012730D01*
X0012252Y0012649D01*
X0012345Y0012566D01*
X0012436Y0012480D01*
X0012523Y0012391D01*
X0012608Y0012299D01*
X0012690Y0012205D01*
X0012769Y0012108D01*
X0012844Y0012008D01*
X0012917Y0011907D01*
X0012986Y0011803D01*
X0013052Y0011696D01*
X0013114Y0011588D01*
X0013173Y0011478D01*
X0013229Y0011366D01*
X0013281Y0011252D01*
X0013329Y0011137D01*
X0013374Y0011021D01*
X0013414Y0010902D01*
X0013452Y0010783D01*
X0013485Y0010663D01*
X0013514Y0010541D01*
X0013540Y0010419D01*
X0013562Y0010296D01*
X0013579Y0010172D01*
X0013593Y0010048D01*
X0013603Y0009924D01*
X0013609Y0009799D01*
X0013611Y0009674D01*
X0013609Y0009549D01*
X0013603Y0009424D01*
X0013593Y0009300D01*
X0013579Y0009176D01*
X0013562Y0009052D01*
X0013540Y0008929D01*
X0013514Y0008807D01*
X0013485Y0008685D01*
X0013452Y0008565D01*
X0013414Y0008446D01*
X0013374Y0008327D01*
X0013329Y0008211D01*
X0013281Y0008096D01*
X0013229Y0007982D01*
X0013173Y0007870D01*
X0013114Y0007760D01*
X0013052Y0007652D01*
X0012986Y0007545D01*
X0012917Y0007441D01*
X0012844Y0007340D01*
X0012769Y0007240D01*
X0012690Y0007143D01*
X0012608Y0007049D01*
X0012523Y0006957D01*
X0012436Y0006868D01*
X0012345Y0006782D01*
X0012252Y0006699D01*
X0012156Y0006618D01*
X0012058Y0006541D01*
X0011958Y0006467D01*
X0011855Y0006396D01*
X0011750Y0006329D01*
X0011642Y0006264D01*
X0011533Y0006204D01*
X0011422Y0006146D01*
X0011309Y0006093D01*
X0011195Y0006043D01*
X0011079Y0005996D01*
X0010962Y0005954D01*
X0010843Y0005915D01*
X0010723Y0005879D01*
X0010602Y0005848D01*
X0010480Y0005820D01*
X0010358Y0005797D01*
X0010234Y0005777D01*
X0010110Y0005761D01*
X0009986Y0005749D01*
X0009861Y0005741D01*
X0009736Y0005737D01*
X0009612Y0005737D01*
X0009487Y0005741D01*
X0009362Y0005749D01*
X0009238Y0005761D01*
X0009114Y0005777D01*
X0008990Y0005797D01*
X0008868Y0005820D01*
X0008746Y0005848D01*
X0008625Y0005879D01*
X0008505Y0005915D01*
X0008386Y0005954D01*
X0008269Y0005996D01*
X0008153Y0006043D01*
X0008039Y0006093D01*
X0007926Y0006146D01*
X0007815Y0006204D01*
X0007705Y0006264D01*
X0007598Y0006329D01*
X0007493Y0006396D01*
X0007390Y0006467D01*
X0007290Y0006541D01*
X0007192Y0006618D01*
X0007096Y0006699D01*
X0007003Y0006782D01*
X0006912Y0006868D01*
X0006825Y0006957D01*
X0006740Y0007049D01*
X0006658Y0007143D01*
X0006579Y0007240D01*
X0006504Y0007340D01*
X0006431Y0007441D01*
X0006362Y0007545D01*
X0006296Y0007652D01*
X0006234Y0007760D01*
X0006175Y0007870D01*
X0006119Y0007982D01*
X0006067Y0008096D01*
X0006019Y0008211D01*
X0005974Y0008327D01*
X0005934Y0008446D01*
X0005896Y0008565D01*
X0005863Y0008685D01*
X0005834Y0008807D01*
X0005808Y0008929D01*
X0005786Y0009052D01*
X0005769Y0009176D01*
X0005755Y0009300D01*
X0005745Y0009424D01*
X0005739Y0009549D01*
X0005737Y0009674D01*
X0005737Y0112036D02*
X0005739Y0112161D01*
X0005745Y0112286D01*
X0005755Y0112410D01*
X0005769Y0112534D01*
X0005786Y0112658D01*
X0005808Y0112781D01*
X0005834Y0112903D01*
X0005863Y0113025D01*
X0005896Y0113145D01*
X0005934Y0113264D01*
X0005974Y0113383D01*
X0006019Y0113499D01*
X0006067Y0113614D01*
X0006119Y0113728D01*
X0006175Y0113840D01*
X0006234Y0113950D01*
X0006296Y0114058D01*
X0006362Y0114165D01*
X0006431Y0114269D01*
X0006504Y0114370D01*
X0006579Y0114470D01*
X0006658Y0114567D01*
X0006740Y0114661D01*
X0006825Y0114753D01*
X0006912Y0114842D01*
X0007003Y0114928D01*
X0007096Y0115011D01*
X0007192Y0115092D01*
X0007290Y0115169D01*
X0007390Y0115243D01*
X0007493Y0115314D01*
X0007598Y0115381D01*
X0007706Y0115446D01*
X0007815Y0115506D01*
X0007926Y0115564D01*
X0008039Y0115617D01*
X0008153Y0115667D01*
X0008269Y0115714D01*
X0008386Y0115756D01*
X0008505Y0115795D01*
X0008625Y0115831D01*
X0008746Y0115862D01*
X0008868Y0115890D01*
X0008990Y0115913D01*
X0009114Y0115933D01*
X0009238Y0115949D01*
X0009362Y0115961D01*
X0009487Y0115969D01*
X0009612Y0115973D01*
X0009736Y0115973D01*
X0009861Y0115969D01*
X0009986Y0115961D01*
X0010110Y0115949D01*
X0010234Y0115933D01*
X0010358Y0115913D01*
X0010480Y0115890D01*
X0010602Y0115862D01*
X0010723Y0115831D01*
X0010843Y0115795D01*
X0010962Y0115756D01*
X0011079Y0115714D01*
X0011195Y0115667D01*
X0011309Y0115617D01*
X0011422Y0115564D01*
X0011533Y0115506D01*
X0011643Y0115446D01*
X0011750Y0115381D01*
X0011855Y0115314D01*
X0011958Y0115243D01*
X0012058Y0115169D01*
X0012156Y0115092D01*
X0012252Y0115011D01*
X0012345Y0114928D01*
X0012436Y0114842D01*
X0012523Y0114753D01*
X0012608Y0114661D01*
X0012690Y0114567D01*
X0012769Y0114470D01*
X0012844Y0114370D01*
X0012917Y0114269D01*
X0012986Y0114165D01*
X0013052Y0114058D01*
X0013114Y0113950D01*
X0013173Y0113840D01*
X0013229Y0113728D01*
X0013281Y0113614D01*
X0013329Y0113499D01*
X0013374Y0113383D01*
X0013414Y0113264D01*
X0013452Y0113145D01*
X0013485Y0113025D01*
X0013514Y0112903D01*
X0013540Y0112781D01*
X0013562Y0112658D01*
X0013579Y0112534D01*
X0013593Y0112410D01*
X0013603Y0112286D01*
X0013609Y0112161D01*
X0013611Y0112036D01*
X0013609Y0111911D01*
X0013603Y0111786D01*
X0013593Y0111662D01*
X0013579Y0111538D01*
X0013562Y0111414D01*
X0013540Y0111291D01*
X0013514Y0111169D01*
X0013485Y0111047D01*
X0013452Y0110927D01*
X0013414Y0110808D01*
X0013374Y0110689D01*
X0013329Y0110573D01*
X0013281Y0110458D01*
X0013229Y0110344D01*
X0013173Y0110232D01*
X0013114Y0110122D01*
X0013052Y0110014D01*
X0012986Y0109907D01*
X0012917Y0109803D01*
X0012844Y0109702D01*
X0012769Y0109602D01*
X0012690Y0109505D01*
X0012608Y0109411D01*
X0012523Y0109319D01*
X0012436Y0109230D01*
X0012345Y0109144D01*
X0012252Y0109061D01*
X0012156Y0108980D01*
X0012058Y0108903D01*
X0011958Y0108829D01*
X0011855Y0108758D01*
X0011750Y0108691D01*
X0011642Y0108626D01*
X0011533Y0108566D01*
X0011422Y0108508D01*
X0011309Y0108455D01*
X0011195Y0108405D01*
X0011079Y0108358D01*
X0010962Y0108316D01*
X0010843Y0108277D01*
X0010723Y0108241D01*
X0010602Y0108210D01*
X0010480Y0108182D01*
X0010358Y0108159D01*
X0010234Y0108139D01*
X0010110Y0108123D01*
X0009986Y0108111D01*
X0009861Y0108103D01*
X0009736Y0108099D01*
X0009612Y0108099D01*
X0009487Y0108103D01*
X0009362Y0108111D01*
X0009238Y0108123D01*
X0009114Y0108139D01*
X0008990Y0108159D01*
X0008868Y0108182D01*
X0008746Y0108210D01*
X0008625Y0108241D01*
X0008505Y0108277D01*
X0008386Y0108316D01*
X0008269Y0108358D01*
X0008153Y0108405D01*
X0008039Y0108455D01*
X0007926Y0108508D01*
X0007815Y0108566D01*
X0007705Y0108626D01*
X0007598Y0108691D01*
X0007493Y0108758D01*
X0007390Y0108829D01*
X0007290Y0108903D01*
X0007192Y0108980D01*
X0007096Y0109061D01*
X0007003Y0109144D01*
X0006912Y0109230D01*
X0006825Y0109319D01*
X0006740Y0109411D01*
X0006658Y0109505D01*
X0006579Y0109602D01*
X0006504Y0109702D01*
X0006431Y0109803D01*
X0006362Y0109907D01*
X0006296Y0110014D01*
X0006234Y0110122D01*
X0006175Y0110232D01*
X0006119Y0110344D01*
X0006067Y0110458D01*
X0006019Y0110573D01*
X0005974Y0110689D01*
X0005934Y0110808D01*
X0005896Y0110927D01*
X0005863Y0111047D01*
X0005834Y0111169D01*
X0005808Y0111291D01*
X0005786Y0111414D01*
X0005769Y0111538D01*
X0005755Y0111662D01*
X0005745Y0111786D01*
X0005739Y0111911D01*
X0005737Y0112036D01*
X0108099Y0112036D02*
X0108101Y0112161D01*
X0108107Y0112286D01*
X0108117Y0112410D01*
X0108131Y0112534D01*
X0108148Y0112658D01*
X0108170Y0112781D01*
X0108196Y0112903D01*
X0108225Y0113025D01*
X0108258Y0113145D01*
X0108296Y0113264D01*
X0108336Y0113383D01*
X0108381Y0113499D01*
X0108429Y0113614D01*
X0108481Y0113728D01*
X0108537Y0113840D01*
X0108596Y0113950D01*
X0108658Y0114058D01*
X0108724Y0114165D01*
X0108793Y0114269D01*
X0108866Y0114370D01*
X0108941Y0114470D01*
X0109020Y0114567D01*
X0109102Y0114661D01*
X0109187Y0114753D01*
X0109274Y0114842D01*
X0109365Y0114928D01*
X0109458Y0115011D01*
X0109554Y0115092D01*
X0109652Y0115169D01*
X0109752Y0115243D01*
X0109855Y0115314D01*
X0109960Y0115381D01*
X0110068Y0115446D01*
X0110177Y0115506D01*
X0110288Y0115564D01*
X0110401Y0115617D01*
X0110515Y0115667D01*
X0110631Y0115714D01*
X0110748Y0115756D01*
X0110867Y0115795D01*
X0110987Y0115831D01*
X0111108Y0115862D01*
X0111230Y0115890D01*
X0111352Y0115913D01*
X0111476Y0115933D01*
X0111600Y0115949D01*
X0111724Y0115961D01*
X0111849Y0115969D01*
X0111974Y0115973D01*
X0112098Y0115973D01*
X0112223Y0115969D01*
X0112348Y0115961D01*
X0112472Y0115949D01*
X0112596Y0115933D01*
X0112720Y0115913D01*
X0112842Y0115890D01*
X0112964Y0115862D01*
X0113085Y0115831D01*
X0113205Y0115795D01*
X0113324Y0115756D01*
X0113441Y0115714D01*
X0113557Y0115667D01*
X0113671Y0115617D01*
X0113784Y0115564D01*
X0113895Y0115506D01*
X0114005Y0115446D01*
X0114112Y0115381D01*
X0114217Y0115314D01*
X0114320Y0115243D01*
X0114420Y0115169D01*
X0114518Y0115092D01*
X0114614Y0115011D01*
X0114707Y0114928D01*
X0114798Y0114842D01*
X0114885Y0114753D01*
X0114970Y0114661D01*
X0115052Y0114567D01*
X0115131Y0114470D01*
X0115206Y0114370D01*
X0115279Y0114269D01*
X0115348Y0114165D01*
X0115414Y0114058D01*
X0115476Y0113950D01*
X0115535Y0113840D01*
X0115591Y0113728D01*
X0115643Y0113614D01*
X0115691Y0113499D01*
X0115736Y0113383D01*
X0115776Y0113264D01*
X0115814Y0113145D01*
X0115847Y0113025D01*
X0115876Y0112903D01*
X0115902Y0112781D01*
X0115924Y0112658D01*
X0115941Y0112534D01*
X0115955Y0112410D01*
X0115965Y0112286D01*
X0115971Y0112161D01*
X0115973Y0112036D01*
X0115971Y0111911D01*
X0115965Y0111786D01*
X0115955Y0111662D01*
X0115941Y0111538D01*
X0115924Y0111414D01*
X0115902Y0111291D01*
X0115876Y0111169D01*
X0115847Y0111047D01*
X0115814Y0110927D01*
X0115776Y0110808D01*
X0115736Y0110689D01*
X0115691Y0110573D01*
X0115643Y0110458D01*
X0115591Y0110344D01*
X0115535Y0110232D01*
X0115476Y0110122D01*
X0115414Y0110014D01*
X0115348Y0109907D01*
X0115279Y0109803D01*
X0115206Y0109702D01*
X0115131Y0109602D01*
X0115052Y0109505D01*
X0114970Y0109411D01*
X0114885Y0109319D01*
X0114798Y0109230D01*
X0114707Y0109144D01*
X0114614Y0109061D01*
X0114518Y0108980D01*
X0114420Y0108903D01*
X0114320Y0108829D01*
X0114217Y0108758D01*
X0114112Y0108691D01*
X0114004Y0108626D01*
X0113895Y0108566D01*
X0113784Y0108508D01*
X0113671Y0108455D01*
X0113557Y0108405D01*
X0113441Y0108358D01*
X0113324Y0108316D01*
X0113205Y0108277D01*
X0113085Y0108241D01*
X0112964Y0108210D01*
X0112842Y0108182D01*
X0112720Y0108159D01*
X0112596Y0108139D01*
X0112472Y0108123D01*
X0112348Y0108111D01*
X0112223Y0108103D01*
X0112098Y0108099D01*
X0111974Y0108099D01*
X0111849Y0108103D01*
X0111724Y0108111D01*
X0111600Y0108123D01*
X0111476Y0108139D01*
X0111352Y0108159D01*
X0111230Y0108182D01*
X0111108Y0108210D01*
X0110987Y0108241D01*
X0110867Y0108277D01*
X0110748Y0108316D01*
X0110631Y0108358D01*
X0110515Y0108405D01*
X0110401Y0108455D01*
X0110288Y0108508D01*
X0110177Y0108566D01*
X0110067Y0108626D01*
X0109960Y0108691D01*
X0109855Y0108758D01*
X0109752Y0108829D01*
X0109652Y0108903D01*
X0109554Y0108980D01*
X0109458Y0109061D01*
X0109365Y0109144D01*
X0109274Y0109230D01*
X0109187Y0109319D01*
X0109102Y0109411D01*
X0109020Y0109505D01*
X0108941Y0109602D01*
X0108866Y0109702D01*
X0108793Y0109803D01*
X0108724Y0109907D01*
X0108658Y0110014D01*
X0108596Y0110122D01*
X0108537Y0110232D01*
X0108481Y0110344D01*
X0108429Y0110458D01*
X0108381Y0110573D01*
X0108336Y0110689D01*
X0108296Y0110808D01*
X0108258Y0110927D01*
X0108225Y0111047D01*
X0108196Y0111169D01*
X0108170Y0111291D01*
X0108148Y0111414D01*
X0108131Y0111538D01*
X0108117Y0111662D01*
X0108107Y0111786D01*
X0108101Y0111911D01*
X0108099Y0112036D01*
X0108099Y0009674D02*
X0108101Y0009799D01*
X0108107Y0009924D01*
X0108117Y0010048D01*
X0108131Y0010172D01*
X0108148Y0010296D01*
X0108170Y0010419D01*
X0108196Y0010541D01*
X0108225Y0010663D01*
X0108258Y0010783D01*
X0108296Y0010902D01*
X0108336Y0011021D01*
X0108381Y0011137D01*
X0108429Y0011252D01*
X0108481Y0011366D01*
X0108537Y0011478D01*
X0108596Y0011588D01*
X0108658Y0011696D01*
X0108724Y0011803D01*
X0108793Y0011907D01*
X0108866Y0012008D01*
X0108941Y0012108D01*
X0109020Y0012205D01*
X0109102Y0012299D01*
X0109187Y0012391D01*
X0109274Y0012480D01*
X0109365Y0012566D01*
X0109458Y0012649D01*
X0109554Y0012730D01*
X0109652Y0012807D01*
X0109752Y0012881D01*
X0109855Y0012952D01*
X0109960Y0013019D01*
X0110068Y0013084D01*
X0110177Y0013144D01*
X0110288Y0013202D01*
X0110401Y0013255D01*
X0110515Y0013305D01*
X0110631Y0013352D01*
X0110748Y0013394D01*
X0110867Y0013433D01*
X0110987Y0013469D01*
X0111108Y0013500D01*
X0111230Y0013528D01*
X0111352Y0013551D01*
X0111476Y0013571D01*
X0111600Y0013587D01*
X0111724Y0013599D01*
X0111849Y0013607D01*
X0111974Y0013611D01*
X0112098Y0013611D01*
X0112223Y0013607D01*
X0112348Y0013599D01*
X0112472Y0013587D01*
X0112596Y0013571D01*
X0112720Y0013551D01*
X0112842Y0013528D01*
X0112964Y0013500D01*
X0113085Y0013469D01*
X0113205Y0013433D01*
X0113324Y0013394D01*
X0113441Y0013352D01*
X0113557Y0013305D01*
X0113671Y0013255D01*
X0113784Y0013202D01*
X0113895Y0013144D01*
X0114005Y0013084D01*
X0114112Y0013019D01*
X0114217Y0012952D01*
X0114320Y0012881D01*
X0114420Y0012807D01*
X0114518Y0012730D01*
X0114614Y0012649D01*
X0114707Y0012566D01*
X0114798Y0012480D01*
X0114885Y0012391D01*
X0114970Y0012299D01*
X0115052Y0012205D01*
X0115131Y0012108D01*
X0115206Y0012008D01*
X0115279Y0011907D01*
X0115348Y0011803D01*
X0115414Y0011696D01*
X0115476Y0011588D01*
X0115535Y0011478D01*
X0115591Y0011366D01*
X0115643Y0011252D01*
X0115691Y0011137D01*
X0115736Y0011021D01*
X0115776Y0010902D01*
X0115814Y0010783D01*
X0115847Y0010663D01*
X0115876Y0010541D01*
X0115902Y0010419D01*
X0115924Y0010296D01*
X0115941Y0010172D01*
X0115955Y0010048D01*
X0115965Y0009924D01*
X0115971Y0009799D01*
X0115973Y0009674D01*
X0115971Y0009549D01*
X0115965Y0009424D01*
X0115955Y0009300D01*
X0115941Y0009176D01*
X0115924Y0009052D01*
X0115902Y0008929D01*
X0115876Y0008807D01*
X0115847Y0008685D01*
X0115814Y0008565D01*
X0115776Y0008446D01*
X0115736Y0008327D01*
X0115691Y0008211D01*
X0115643Y0008096D01*
X0115591Y0007982D01*
X0115535Y0007870D01*
X0115476Y0007760D01*
X0115414Y0007652D01*
X0115348Y0007545D01*
X0115279Y0007441D01*
X0115206Y0007340D01*
X0115131Y0007240D01*
X0115052Y0007143D01*
X0114970Y0007049D01*
X0114885Y0006957D01*
X0114798Y0006868D01*
X0114707Y0006782D01*
X0114614Y0006699D01*
X0114518Y0006618D01*
X0114420Y0006541D01*
X0114320Y0006467D01*
X0114217Y0006396D01*
X0114112Y0006329D01*
X0114004Y0006264D01*
X0113895Y0006204D01*
X0113784Y0006146D01*
X0113671Y0006093D01*
X0113557Y0006043D01*
X0113441Y0005996D01*
X0113324Y0005954D01*
X0113205Y0005915D01*
X0113085Y0005879D01*
X0112964Y0005848D01*
X0112842Y0005820D01*
X0112720Y0005797D01*
X0112596Y0005777D01*
X0112472Y0005761D01*
X0112348Y0005749D01*
X0112223Y0005741D01*
X0112098Y0005737D01*
X0111974Y0005737D01*
X0111849Y0005741D01*
X0111724Y0005749D01*
X0111600Y0005761D01*
X0111476Y0005777D01*
X0111352Y0005797D01*
X0111230Y0005820D01*
X0111108Y0005848D01*
X0110987Y0005879D01*
X0110867Y0005915D01*
X0110748Y0005954D01*
X0110631Y0005996D01*
X0110515Y0006043D01*
X0110401Y0006093D01*
X0110288Y0006146D01*
X0110177Y0006204D01*
X0110067Y0006264D01*
X0109960Y0006329D01*
X0109855Y0006396D01*
X0109752Y0006467D01*
X0109652Y0006541D01*
X0109554Y0006618D01*
X0109458Y0006699D01*
X0109365Y0006782D01*
X0109274Y0006868D01*
X0109187Y0006957D01*
X0109102Y0007049D01*
X0109020Y0007143D01*
X0108941Y0007240D01*
X0108866Y0007340D01*
X0108793Y0007441D01*
X0108724Y0007545D01*
X0108658Y0007652D01*
X0108596Y0007760D01*
X0108537Y0007870D01*
X0108481Y0007982D01*
X0108429Y0008096D01*
X0108381Y0008211D01*
X0108336Y0008327D01*
X0108296Y0008446D01*
X0108258Y0008565D01*
X0108225Y0008685D01*
X0108196Y0008807D01*
X0108170Y0008929D01*
X0108148Y0009052D01*
X0108131Y0009176D01*
X0108117Y0009300D01*
X0108107Y0009424D01*
X0108101Y0009549D01*
X0108099Y0009674D01*
D11*
X0074800Y0056288D03*
X0074800Y0067312D03*
X0041800Y0053312D03*
X0041800Y0042288D03*
D12*
X0022800Y0038800D02*
X0016800Y0038800D01*
X0016800Y0028800D02*
X0022800Y0028800D01*
X0038800Y0022800D02*
X0038800Y0016800D01*
X0048800Y0016800D02*
X0048800Y0022800D01*
X0058800Y0022800D02*
X0058800Y0016800D01*
X0068800Y0016800D02*
X0068800Y0022800D01*
X0098800Y0021800D02*
X0104800Y0021800D01*
X0104800Y0031800D02*
X0098800Y0031800D01*
X0096800Y0054800D02*
X0102800Y0054800D01*
X0102800Y0064800D02*
X0096800Y0064800D01*
X0096800Y0086800D02*
X0102800Y0086800D01*
X0102800Y0096800D02*
X0096800Y0096800D01*
X0022800Y0095800D02*
X0016800Y0095800D01*
X0016800Y0085800D02*
X0022800Y0085800D01*
X0022800Y0066800D02*
X0016800Y0066800D01*
X0016800Y0056800D02*
X0022800Y0056800D01*
D13*
X0030926Y0079800D03*
X0046674Y0079800D03*
D14*
X0045666Y0110800D03*
X0053934Y0110800D03*
D15*
X0062060Y0110800D03*
X0069540Y0110800D03*
X0079060Y0009800D03*
X0086540Y0009800D03*
X0030540Y0008800D03*
X0023060Y0008800D03*
D16*
X0053650Y0057745D03*
X0057391Y0057745D03*
X0061131Y0057745D03*
X0061131Y0068375D03*
X0053650Y0068375D03*
D17*
X0053650Y0072824D01*
X0046674Y0079800D01*
X0039531Y0080127D02*
X0031726Y0080127D01*
X0031726Y0080600D02*
X0031726Y0079000D01*
X0036269Y0079000D01*
X0036269Y0072476D01*
X0036147Y0072019D01*
X0035910Y0071608D01*
X0035575Y0071273D01*
X0035164Y0071036D01*
X0034706Y0070913D01*
X0031726Y0070913D01*
X0031726Y0079000D01*
X0030126Y0079000D01*
X0030126Y0070913D01*
X0027146Y0070913D01*
X0026688Y0071036D01*
X0026277Y0071273D01*
X0025942Y0071608D01*
X0025705Y0072019D01*
X0025583Y0072476D01*
X0025583Y0079000D01*
X0030126Y0079000D01*
X0030126Y0080600D01*
X0030126Y0088687D01*
X0027146Y0088687D01*
X0026719Y0088572D01*
X0026461Y0088927D01*
X0025927Y0089461D01*
X0025316Y0089905D01*
X0024643Y0090248D01*
X0023924Y0090482D01*
X0023178Y0090600D01*
X0020000Y0090600D01*
X0020000Y0086000D01*
X0019600Y0086000D01*
X0019600Y0090600D01*
X0016422Y0090600D01*
X0015676Y0090482D01*
X0014957Y0090248D01*
X0014284Y0089905D01*
X0013673Y0089461D01*
X0013139Y0088927D01*
X0012695Y0088316D01*
X0012352Y0087643D01*
X0012118Y0086924D01*
X0012000Y0086178D01*
X0012000Y0086000D01*
X0019600Y0086000D01*
X0019600Y0085600D01*
X0020000Y0085600D01*
X0020000Y0081000D01*
X0023178Y0081000D01*
X0023924Y0081118D01*
X0024643Y0081352D01*
X0025316Y0081695D01*
X0025583Y0081889D01*
X0025583Y0080600D01*
X0030126Y0080600D01*
X0031726Y0080600D01*
X0036269Y0080600D01*
X0036269Y0087124D01*
X0036147Y0087581D01*
X0035910Y0087992D01*
X0035575Y0088327D01*
X0035164Y0088564D01*
X0034706Y0088687D01*
X0031726Y0088687D01*
X0031726Y0080600D01*
X0031726Y0081726D02*
X0030126Y0081726D01*
X0030126Y0083324D02*
X0031726Y0083324D01*
X0031726Y0084923D02*
X0030126Y0084923D01*
X0030126Y0086521D02*
X0031726Y0086521D01*
X0031726Y0088120D02*
X0030126Y0088120D01*
X0025573Y0089718D02*
X0040800Y0089718D01*
X0040800Y0089647D02*
X0039531Y0088378D01*
X0039531Y0071222D01*
X0040800Y0069953D01*
X0040800Y0061800D01*
X0026800Y0047800D01*
X0009800Y0047800D01*
X0008549Y0047898D01*
X0007328Y0048192D01*
X0006600Y0048493D01*
X0006600Y0102800D01*
X0039800Y0102800D01*
X0040059Y0102766D01*
X0040300Y0102666D01*
X0040507Y0102507D01*
X0040666Y0102300D01*
X0040766Y0102059D01*
X0040800Y0101800D01*
X0040800Y0089647D01*
X0039531Y0088120D02*
X0035782Y0088120D01*
X0036269Y0086521D02*
X0039531Y0086521D01*
X0039531Y0084923D02*
X0036269Y0084923D01*
X0036269Y0083324D02*
X0039531Y0083324D01*
X0039531Y0081726D02*
X0036269Y0081726D01*
X0036269Y0078529D02*
X0039531Y0078529D01*
X0039531Y0076930D02*
X0036269Y0076930D01*
X0036269Y0075332D02*
X0039531Y0075332D01*
X0039531Y0073733D02*
X0036269Y0073733D01*
X0036178Y0072134D02*
X0039531Y0072134D01*
X0040217Y0070536D02*
X0025824Y0070536D01*
X0025927Y0070461D02*
X0025316Y0070905D01*
X0024643Y0071248D01*
X0023924Y0071482D01*
X0023178Y0071600D01*
X0020000Y0071600D01*
X0020000Y0067000D01*
X0019600Y0067000D01*
X0019600Y0071600D01*
X0016422Y0071600D01*
X0015676Y0071482D01*
X0014957Y0071248D01*
X0014284Y0070905D01*
X0013673Y0070461D01*
X0013139Y0069927D01*
X0012695Y0069316D01*
X0012352Y0068643D01*
X0012118Y0067924D01*
X0012000Y0067178D01*
X0012000Y0067000D01*
X0019600Y0067000D01*
X0019600Y0066600D01*
X0020000Y0066600D01*
X0020000Y0067000D01*
X0027600Y0067000D01*
X0027600Y0067178D01*
X0027482Y0067924D01*
X0027248Y0068643D01*
X0026905Y0069316D01*
X0026461Y0069927D01*
X0025927Y0070461D01*
X0027098Y0068937D02*
X0040800Y0068937D01*
X0040800Y0067339D02*
X0027574Y0067339D01*
X0027600Y0066600D02*
X0020000Y0066600D01*
X0020000Y0062000D01*
X0023178Y0062000D01*
X0023924Y0062118D01*
X0024643Y0062352D01*
X0025316Y0062695D01*
X0025927Y0063139D01*
X0026461Y0063673D01*
X0026905Y0064284D01*
X0027248Y0064957D01*
X0027482Y0065676D01*
X0027600Y0066422D01*
X0027600Y0066600D01*
X0027492Y0065740D02*
X0040800Y0065740D01*
X0040800Y0064142D02*
X0026802Y0064142D01*
X0025019Y0062543D02*
X0040800Y0062543D01*
X0039945Y0060945D02*
X0025238Y0060945D01*
X0025316Y0060905D02*
X0024643Y0061248D01*
X0023924Y0061482D01*
X0023178Y0061600D01*
X0020000Y0061600D01*
X0020000Y0057000D01*
X0019600Y0057000D01*
X0019600Y0061600D01*
X0016422Y0061600D01*
X0015676Y0061482D01*
X0014957Y0061248D01*
X0014284Y0060905D01*
X0013673Y0060461D01*
X0013139Y0059927D01*
X0012695Y0059316D01*
X0012352Y0058643D01*
X0012118Y0057924D01*
X0012000Y0057178D01*
X0012000Y0057000D01*
X0019600Y0057000D01*
X0019600Y0056600D01*
X0020000Y0056600D01*
X0020000Y0057000D01*
X0027600Y0057000D01*
X0027600Y0057178D01*
X0027482Y0057924D01*
X0027248Y0058643D01*
X0026905Y0059316D01*
X0026461Y0059927D01*
X0025927Y0060461D01*
X0025316Y0060905D01*
X0026883Y0059346D02*
X0038346Y0059346D01*
X0036748Y0057748D02*
X0027510Y0057748D01*
X0027600Y0056600D02*
X0020000Y0056600D01*
X0020000Y0052000D01*
X0023178Y0052000D01*
X0023924Y0052118D01*
X0024643Y0052352D01*
X0025316Y0052695D01*
X0025927Y0053139D01*
X0026461Y0053673D01*
X0026905Y0054284D01*
X0027248Y0054957D01*
X0027482Y0055676D01*
X0027600Y0056422D01*
X0027600Y0056600D01*
X0027557Y0056149D02*
X0035149Y0056149D01*
X0033551Y0054551D02*
X0027041Y0054551D01*
X0025670Y0052952D02*
X0031952Y0052952D01*
X0030354Y0051354D02*
X0006600Y0051354D01*
X0006600Y0052952D02*
X0013930Y0052952D01*
X0013673Y0053139D02*
X0014284Y0052695D01*
X0014957Y0052352D01*
X0015676Y0052118D01*
X0016422Y0052000D01*
X0019600Y0052000D01*
X0019600Y0056600D01*
X0012000Y0056600D01*
X0012000Y0056422D01*
X0012118Y0055676D01*
X0012352Y0054957D01*
X0012695Y0054284D01*
X0013139Y0053673D01*
X0013673Y0053139D01*
X0012559Y0054551D02*
X0006600Y0054551D01*
X0006600Y0056149D02*
X0012043Y0056149D01*
X0012090Y0057748D02*
X0006600Y0057748D01*
X0006600Y0059346D02*
X0012717Y0059346D01*
X0014362Y0060945D02*
X0006600Y0060945D01*
X0006600Y0062543D02*
X0014581Y0062543D01*
X0014284Y0062695D02*
X0014957Y0062352D01*
X0015676Y0062118D01*
X0016422Y0062000D01*
X0019600Y0062000D01*
X0019600Y0066600D01*
X0012000Y0066600D01*
X0012000Y0066422D01*
X0012118Y0065676D01*
X0012352Y0064957D01*
X0012695Y0064284D01*
X0013139Y0063673D01*
X0013673Y0063139D01*
X0014284Y0062695D01*
X0012798Y0064142D02*
X0006600Y0064142D01*
X0006600Y0065740D02*
X0012108Y0065740D01*
X0012026Y0067339D02*
X0006600Y0067339D01*
X0006600Y0068937D02*
X0012502Y0068937D01*
X0013776Y0070536D02*
X0006600Y0070536D01*
X0006600Y0072134D02*
X0025674Y0072134D01*
X0025583Y0073733D02*
X0006600Y0073733D01*
X0006600Y0075332D02*
X0025583Y0075332D01*
X0025583Y0076930D02*
X0006600Y0076930D01*
X0006600Y0078529D02*
X0025583Y0078529D01*
X0025800Y0079800D02*
X0030926Y0079800D01*
X0030126Y0080127D02*
X0006600Y0080127D01*
X0006600Y0081726D02*
X0014242Y0081726D01*
X0014284Y0081695D02*
X0014957Y0081352D01*
X0015676Y0081118D01*
X0016422Y0081000D01*
X0019600Y0081000D01*
X0019600Y0085600D01*
X0012000Y0085600D01*
X0012000Y0085422D01*
X0012118Y0084676D01*
X0012352Y0083957D01*
X0012695Y0083284D01*
X0013139Y0082673D01*
X0013673Y0082139D01*
X0014284Y0081695D01*
X0012674Y0083324D02*
X0006600Y0083324D01*
X0006600Y0084923D02*
X0012079Y0084923D01*
X0012054Y0086521D02*
X0006600Y0086521D01*
X0006600Y0088120D02*
X0012595Y0088120D01*
X0014027Y0089718D02*
X0006600Y0089718D01*
X0006600Y0091317D02*
X0015065Y0091317D01*
X0014957Y0091352D02*
X0015676Y0091118D01*
X0016422Y0091000D01*
X0019600Y0091000D01*
X0019600Y0095600D01*
X0020000Y0095600D01*
X0020000Y0096000D01*
X0019600Y0096000D01*
X0019600Y0100600D01*
X0016422Y0100600D01*
X0015676Y0100482D01*
X0014957Y0100248D01*
X0014284Y0099905D01*
X0013673Y0099461D01*
X0013139Y0098927D01*
X0012695Y0098316D01*
X0012352Y0097643D01*
X0012118Y0096924D01*
X0012000Y0096178D01*
X0012000Y0096000D01*
X0019600Y0096000D01*
X0019600Y0095600D01*
X0012000Y0095600D01*
X0012000Y0095422D01*
X0012118Y0094676D01*
X0012352Y0093957D01*
X0012695Y0093284D01*
X0013139Y0092673D01*
X0013673Y0092139D01*
X0014284Y0091695D01*
X0014957Y0091352D01*
X0012963Y0092915D02*
X0006600Y0092915D01*
X0006600Y0094514D02*
X0012171Y0094514D01*
X0012000Y0096112D02*
X0006600Y0096112D01*
X0006600Y0097711D02*
X0012386Y0097711D01*
X0013521Y0099309D02*
X0006600Y0099309D01*
X0006600Y0100908D02*
X0040800Y0100908D01*
X0040800Y0099309D02*
X0026079Y0099309D01*
X0025927Y0099461D02*
X0025316Y0099905D01*
X0024643Y0100248D01*
X0023924Y0100482D01*
X0023178Y0100600D01*
X0020000Y0100600D01*
X0020000Y0096000D01*
X0027600Y0096000D01*
X0027600Y0096178D01*
X0027482Y0096924D01*
X0027248Y0097643D01*
X0026905Y0098316D01*
X0026461Y0098927D01*
X0025927Y0099461D01*
X0027214Y0097711D02*
X0040800Y0097711D01*
X0040800Y0096112D02*
X0027600Y0096112D01*
X0027600Y0095600D02*
X0020000Y0095600D01*
X0020000Y0091000D01*
X0023178Y0091000D01*
X0023924Y0091118D01*
X0024643Y0091352D01*
X0025316Y0091695D01*
X0025927Y0092139D01*
X0026461Y0092673D01*
X0026905Y0093284D01*
X0027248Y0093957D01*
X0027482Y0094676D01*
X0027600Y0095422D01*
X0027600Y0095600D01*
X0027429Y0094514D02*
X0040800Y0094514D01*
X0040800Y0092915D02*
X0026637Y0092915D01*
X0024535Y0091317D02*
X0040800Y0091317D01*
X0041731Y0087467D02*
X0045666Y0091402D01*
X0045666Y0110800D01*
X0053934Y0110800D02*
X0062060Y0110800D01*
X0065800Y0106483D02*
X0065876Y0106407D01*
X0066286Y0106170D01*
X0066744Y0106047D01*
X0069061Y0106047D01*
X0069061Y0110320D01*
X0070020Y0110320D01*
X0070020Y0106047D01*
X0072336Y0106047D01*
X0072794Y0106170D01*
X0073204Y0106407D01*
X0073540Y0106742D01*
X0073777Y0107152D01*
X0073899Y0107610D01*
X0073899Y0110320D01*
X0070020Y0110320D01*
X0070020Y0111280D01*
X0073899Y0111280D01*
X0073899Y0113990D01*
X0073777Y0114448D01*
X0073540Y0114858D01*
X0073287Y0115110D01*
X0088490Y0115110D01*
X0098800Y0104800D01*
X0106916Y0104800D01*
X0107087Y0104629D01*
X0110298Y0103299D01*
X0113774Y0103299D01*
X0115110Y0103853D01*
X0115110Y0048800D01*
X0087800Y0048800D01*
X0079743Y0056857D01*
X0079743Y0060018D01*
X0078923Y0060838D01*
X0075762Y0060838D01*
X0074025Y0062575D01*
X0074025Y0066537D01*
X0069457Y0066537D01*
X0069457Y0063925D01*
X0069579Y0063467D01*
X0069668Y0063313D01*
X0058557Y0063313D01*
X0058043Y0062800D01*
X0057800Y0062800D01*
X0057800Y0076800D01*
X0065800Y0084800D01*
X0065800Y0106483D01*
X0065800Y0105703D02*
X0097897Y0105703D01*
X0096298Y0107302D02*
X0073817Y0107302D01*
X0073899Y0108900D02*
X0094700Y0108900D01*
X0093101Y0110499D02*
X0070020Y0110499D01*
X0069540Y0110800D02*
X0085800Y0110800D01*
X0099800Y0096800D01*
X0099800Y0086800D01*
X0099800Y0064800D01*
X0099800Y0054800D01*
X0100000Y0055000D02*
X0099600Y0055000D01*
X0099600Y0059600D01*
X0096422Y0059600D01*
X0095676Y0059482D01*
X0094957Y0059248D01*
X0094284Y0058905D01*
X0093673Y0058461D01*
X0093139Y0057927D01*
X0092695Y0057316D01*
X0092352Y0056643D01*
X0092118Y0055924D01*
X0092000Y0055178D01*
X0092000Y0055000D01*
X0099600Y0055000D01*
X0099600Y0054600D01*
X0100000Y0054600D01*
X0100000Y0055000D01*
X0100000Y0059600D01*
X0103178Y0059600D01*
X0103924Y0059482D01*
X0104643Y0059248D01*
X0105316Y0058905D01*
X0105927Y0058461D01*
X0106461Y0057927D01*
X0106905Y0057316D01*
X0107248Y0056643D01*
X0107482Y0055924D01*
X0107600Y0055178D01*
X0107600Y0055000D01*
X0100000Y0055000D01*
X0100000Y0054600D02*
X0107600Y0054600D01*
X0107600Y0054422D01*
X0107482Y0053676D01*
X0107248Y0052957D01*
X0106905Y0052284D01*
X0106461Y0051673D01*
X0105927Y0051139D01*
X0105316Y0050695D01*
X0104643Y0050352D01*
X0103924Y0050118D01*
X0103178Y0050000D01*
X0100000Y0050000D01*
X0100000Y0054600D01*
X0100000Y0054551D02*
X0099600Y0054551D01*
X0099600Y0054600D02*
X0099600Y0050000D01*
X0096422Y0050000D01*
X0095676Y0050118D01*
X0094957Y0050352D01*
X0094284Y0050695D01*
X0093673Y0051139D01*
X0093139Y0051673D01*
X0092695Y0052284D01*
X0092352Y0052957D01*
X0092118Y0053676D01*
X0092000Y0054422D01*
X0092000Y0054600D01*
X0099600Y0054600D01*
X0099600Y0052952D02*
X0100000Y0052952D01*
X0100000Y0051354D02*
X0099600Y0051354D01*
X0099600Y0056149D02*
X0100000Y0056149D01*
X0100000Y0057748D02*
X0099600Y0057748D01*
X0099600Y0059346D02*
X0100000Y0059346D01*
X0100000Y0060000D02*
X0103178Y0060000D01*
X0103924Y0060118D01*
X0104643Y0060352D01*
X0105316Y0060695D01*
X0105927Y0061139D01*
X0106461Y0061673D01*
X0106905Y0062284D01*
X0107248Y0062957D01*
X0107482Y0063676D01*
X0107600Y0064422D01*
X0107600Y0064600D01*
X0100000Y0064600D01*
X0100000Y0065000D01*
X0099600Y0065000D01*
X0099600Y0069600D01*
X0096422Y0069600D01*
X0095676Y0069482D01*
X0094957Y0069248D01*
X0094284Y0068905D01*
X0093673Y0068461D01*
X0093139Y0067927D01*
X0092695Y0067316D01*
X0092352Y0066643D01*
X0092118Y0065924D01*
X0092000Y0065178D01*
X0092000Y0065000D01*
X0099600Y0065000D01*
X0099600Y0064600D01*
X0100000Y0064600D01*
X0100000Y0060000D01*
X0099600Y0060000D02*
X0099600Y0064600D01*
X0092000Y0064600D01*
X0092000Y0064422D01*
X0092118Y0063676D01*
X0092352Y0062957D01*
X0092695Y0062284D01*
X0093139Y0061673D01*
X0093673Y0061139D01*
X0094284Y0060695D01*
X0094957Y0060352D01*
X0095676Y0060118D01*
X0096422Y0060000D01*
X0099600Y0060000D01*
X0099600Y0060945D02*
X0100000Y0060945D01*
X0100000Y0062543D02*
X0099600Y0062543D01*
X0099600Y0064142D02*
X0100000Y0064142D01*
X0099800Y0064800D02*
X0077312Y0064800D01*
X0074800Y0067312D01*
X0074800Y0073800D01*
X0070800Y0077800D01*
X0063800Y0077800D01*
X0061131Y0075131D01*
X0061131Y0068375D01*
X0064013Y0068375D01*
X0064013Y0070580D01*
X0063891Y0071038D01*
X0063654Y0071449D01*
X0063319Y0071784D01*
X0062908Y0072021D01*
X0062450Y0072143D01*
X0061131Y0072143D01*
X0061131Y0068375D01*
X0061131Y0068375D01*
X0061131Y0068375D01*
X0064013Y0068375D01*
X0064013Y0066169D01*
X0063891Y0065712D01*
X0063654Y0065301D01*
X0063319Y0064966D01*
X0062908Y0064729D01*
X0062450Y0064606D01*
X0061131Y0064606D01*
X0061131Y0068375D01*
X0061131Y0072143D01*
X0059811Y0072143D01*
X0059353Y0072021D01*
X0058943Y0071784D01*
X0058608Y0071449D01*
X0058371Y0071038D01*
X0058248Y0070580D01*
X0058248Y0068375D01*
X0061131Y0068375D01*
X0061131Y0068375D01*
X0061131Y0068375D01*
X0061131Y0064606D01*
X0059811Y0064606D01*
X0059353Y0064729D01*
X0058943Y0064966D01*
X0058608Y0065301D01*
X0058371Y0065712D01*
X0058248Y0066169D01*
X0058248Y0068375D01*
X0061131Y0068375D01*
X0061131Y0068937D02*
X0061131Y0068937D01*
X0061131Y0067339D02*
X0061131Y0067339D01*
X0061131Y0065740D02*
X0061131Y0065740D01*
X0063898Y0065740D02*
X0069457Y0065740D01*
X0069457Y0068087D02*
X0074025Y0068087D01*
X0074025Y0072261D01*
X0071020Y0072261D01*
X0070562Y0072139D01*
X0070151Y0071902D01*
X0069816Y0071567D01*
X0069579Y0071156D01*
X0069457Y0070698D01*
X0069457Y0068087D01*
X0069457Y0068937D02*
X0064013Y0068937D01*
X0064013Y0067339D02*
X0074025Y0067339D01*
X0074025Y0068087D02*
X0074025Y0066537D01*
X0075575Y0066537D01*
X0075575Y0068087D01*
X0074025Y0068087D01*
X0074025Y0068937D02*
X0075575Y0068937D01*
X0075575Y0068087D02*
X0075575Y0072261D01*
X0078580Y0072261D01*
X0079038Y0072139D01*
X0079449Y0071902D01*
X0079784Y0071567D01*
X0080021Y0071156D01*
X0080143Y0070698D01*
X0080143Y0068087D01*
X0075575Y0068087D01*
X0075575Y0067339D02*
X0092712Y0067339D01*
X0092089Y0065740D02*
X0080143Y0065740D01*
X0080143Y0066537D02*
X0080143Y0063925D01*
X0080021Y0063467D01*
X0079784Y0063057D01*
X0079449Y0062722D01*
X0079038Y0062485D01*
X0078580Y0062362D01*
X0075575Y0062362D01*
X0075575Y0066537D01*
X0080143Y0066537D01*
X0080143Y0064142D02*
X0092044Y0064142D01*
X0092563Y0062543D02*
X0079140Y0062543D01*
X0079743Y0059346D02*
X0095259Y0059346D01*
X0093940Y0060945D02*
X0075655Y0060945D01*
X0075575Y0062543D02*
X0074057Y0062543D01*
X0074025Y0064142D02*
X0075575Y0064142D01*
X0075575Y0065740D02*
X0074025Y0065740D01*
X0069457Y0064142D02*
X0057800Y0064142D01*
X0057800Y0065740D02*
X0058363Y0065740D01*
X0058248Y0067339D02*
X0057800Y0067339D01*
X0057800Y0068937D02*
X0058248Y0068937D01*
X0058248Y0070536D02*
X0057800Y0070536D01*
X0057800Y0072134D02*
X0059778Y0072134D01*
X0061131Y0072134D02*
X0061131Y0072134D01*
X0062483Y0072134D02*
X0070555Y0072134D01*
X0069457Y0070536D02*
X0064013Y0070536D01*
X0061131Y0070536D02*
X0061131Y0070536D01*
X0057800Y0073733D02*
X0115110Y0073733D01*
X0115110Y0072134D02*
X0079045Y0072134D01*
X0080143Y0070536D02*
X0115110Y0070536D01*
X0115110Y0068937D02*
X0105253Y0068937D01*
X0105316Y0068905D02*
X0104643Y0069248D01*
X0103924Y0069482D01*
X0103178Y0069600D01*
X0100000Y0069600D01*
X0100000Y0065000D01*
X0107600Y0065000D01*
X0107600Y0065178D01*
X0107482Y0065924D01*
X0107248Y0066643D01*
X0106905Y0067316D01*
X0106461Y0067927D01*
X0105927Y0068461D01*
X0105316Y0068905D01*
X0106888Y0067339D02*
X0115110Y0067339D01*
X0115110Y0065740D02*
X0107511Y0065740D01*
X0107556Y0064142D02*
X0115110Y0064142D01*
X0115110Y0062543D02*
X0107037Y0062543D01*
X0105660Y0060945D02*
X0115110Y0060945D01*
X0115110Y0059346D02*
X0104341Y0059346D01*
X0106591Y0057748D02*
X0115110Y0057748D01*
X0115110Y0056149D02*
X0107409Y0056149D01*
X0107600Y0054551D02*
X0115110Y0054551D01*
X0115110Y0052952D02*
X0107246Y0052952D01*
X0106142Y0051354D02*
X0115110Y0051354D01*
X0115110Y0049755D02*
X0086845Y0049755D01*
X0085246Y0051354D02*
X0093458Y0051354D01*
X0092354Y0052952D02*
X0083648Y0052952D01*
X0082049Y0054551D02*
X0092000Y0054551D01*
X0092191Y0056149D02*
X0080451Y0056149D01*
X0079743Y0057748D02*
X0093009Y0057748D01*
X0099600Y0065740D02*
X0100000Y0065740D01*
X0100000Y0067339D02*
X0099600Y0067339D01*
X0099600Y0068937D02*
X0100000Y0068937D01*
X0094347Y0068937D02*
X0080143Y0068937D01*
X0075575Y0070536D02*
X0074025Y0070536D01*
X0074025Y0072134D02*
X0075575Y0072134D01*
X0069975Y0061113D02*
X0074800Y0056288D01*
X0074800Y0040800D01*
X0083800Y0031800D01*
X0101800Y0031800D01*
X0102000Y0032000D02*
X0101600Y0032000D01*
X0101600Y0036600D01*
X0098422Y0036600D01*
X0097676Y0036482D01*
X0096957Y0036248D01*
X0096284Y0035905D01*
X0095673Y0035461D01*
X0095139Y0034927D01*
X0094695Y0034316D01*
X0094352Y0033643D01*
X0094118Y0032924D01*
X0094000Y0032178D01*
X0094000Y0032000D01*
X0101600Y0032000D01*
X0101600Y0031600D01*
X0102000Y0031600D01*
X0102000Y0032000D01*
X0102000Y0036600D01*
X0105178Y0036600D01*
X0105924Y0036482D01*
X0106643Y0036248D01*
X0107316Y0035905D01*
X0107927Y0035461D01*
X0108461Y0034927D01*
X0108905Y0034316D01*
X0109248Y0033643D01*
X0109482Y0032924D01*
X0109600Y0032178D01*
X0109600Y0032000D01*
X0102000Y0032000D01*
X0102000Y0032172D02*
X0101600Y0032172D01*
X0101600Y0031600D02*
X0094000Y0031600D01*
X0094000Y0031422D01*
X0094118Y0030676D01*
X0094352Y0029957D01*
X0094695Y0029284D01*
X0095139Y0028673D01*
X0095673Y0028139D01*
X0096284Y0027695D01*
X0096957Y0027352D01*
X0097676Y0027118D01*
X0098422Y0027000D01*
X0101600Y0027000D01*
X0101600Y0031600D01*
X0102000Y0031600D02*
X0102000Y0027000D01*
X0105178Y0027000D01*
X0105924Y0027118D01*
X0106643Y0027352D01*
X0107316Y0027695D01*
X0107927Y0028139D01*
X0108461Y0028673D01*
X0108905Y0029284D01*
X0109248Y0029957D01*
X0109482Y0030676D01*
X0109600Y0031422D01*
X0109600Y0031600D01*
X0102000Y0031600D01*
X0102000Y0030573D02*
X0101600Y0030573D01*
X0101600Y0028975D02*
X0102000Y0028975D01*
X0102000Y0027376D02*
X0101600Y0027376D01*
X0101600Y0026600D02*
X0098422Y0026600D01*
X0097676Y0026482D01*
X0096957Y0026248D01*
X0096284Y0025905D01*
X0095673Y0025461D01*
X0095139Y0024927D01*
X0094695Y0024316D01*
X0094352Y0023643D01*
X0094118Y0022924D01*
X0094000Y0022178D01*
X0094000Y0022000D01*
X0101600Y0022000D01*
X0101600Y0026600D01*
X0102000Y0026600D02*
X0102000Y0022000D01*
X0101600Y0022000D01*
X0101600Y0021600D01*
X0102000Y0021600D01*
X0102000Y0022000D01*
X0109600Y0022000D01*
X0109600Y0022178D01*
X0109482Y0022924D01*
X0109248Y0023643D01*
X0108905Y0024316D01*
X0108461Y0024927D01*
X0107927Y0025461D01*
X0107316Y0025905D01*
X0106643Y0026248D01*
X0105924Y0026482D01*
X0105178Y0026600D01*
X0102000Y0026600D01*
X0102000Y0025778D02*
X0101600Y0025778D01*
X0101600Y0024179D02*
X0102000Y0024179D01*
X0102000Y0022581D02*
X0101600Y0022581D01*
X0101800Y0021800D02*
X0089800Y0009800D01*
X0086540Y0009800D01*
X0087020Y0009793D02*
X0103299Y0009793D01*
X0103299Y0011391D02*
X0090899Y0011391D01*
X0090899Y0010280D02*
X0090899Y0012990D01*
X0090777Y0013448D01*
X0090540Y0013858D01*
X0090204Y0014193D01*
X0089794Y0014430D01*
X0089336Y0014553D01*
X0087020Y0014553D01*
X0087020Y0010280D01*
X0086061Y0010280D01*
X0086061Y0014553D01*
X0083744Y0014553D01*
X0083286Y0014430D01*
X0082876Y0014193D01*
X0082800Y0014117D01*
X0082800Y0020800D01*
X0073800Y0029800D01*
X0063331Y0029800D01*
X0063331Y0048800D01*
X0066800Y0048800D01*
X0069800Y0051800D01*
X0070050Y0051800D01*
X0070151Y0051698D01*
X0070562Y0051461D01*
X0071020Y0051339D01*
X0074025Y0051339D01*
X0074025Y0051800D01*
X0075575Y0051800D01*
X0075575Y0051339D01*
X0077261Y0051339D01*
X0083800Y0044800D01*
X0110800Y0044800D01*
X0115110Y0040490D01*
X0115110Y0017858D01*
X0113774Y0018411D01*
X0110298Y0018411D01*
X0107087Y0017081D01*
X0104629Y0014623D01*
X0103299Y0011412D01*
X0103299Y0007936D01*
X0103853Y0006600D01*
X0090896Y0006600D01*
X0090899Y0006610D01*
X0090899Y0009320D01*
X0087020Y0009320D01*
X0087020Y0010280D01*
X0090899Y0010280D01*
X0090899Y0008194D02*
X0103299Y0008194D01*
X0103953Y0012990D02*
X0090899Y0012990D01*
X0087020Y0012990D02*
X0086061Y0012990D01*
X0086061Y0011391D02*
X0087020Y0011391D01*
X0082800Y0014588D02*
X0104615Y0014588D01*
X0106193Y0016187D02*
X0082800Y0016187D01*
X0082800Y0017785D02*
X0096160Y0017785D01*
X0096284Y0017695D02*
X0096957Y0017352D01*
X0097676Y0017118D01*
X0098422Y0017000D01*
X0101600Y0017000D01*
X0101600Y0021600D01*
X0094000Y0021600D01*
X0094000Y0021422D01*
X0094118Y0020676D01*
X0094352Y0019957D01*
X0094695Y0019284D01*
X0095139Y0018673D01*
X0095673Y0018139D01*
X0096284Y0017695D01*
X0094644Y0019384D02*
X0082800Y0019384D01*
X0082618Y0020982D02*
X0094070Y0020982D01*
X0094064Y0022581D02*
X0081019Y0022581D01*
X0079421Y0024179D02*
X0094625Y0024179D01*
X0096109Y0025778D02*
X0077822Y0025778D01*
X0076224Y0027376D02*
X0096909Y0027376D01*
X0094920Y0028975D02*
X0074625Y0028975D01*
X0068800Y0019800D02*
X0068800Y0012800D01*
X0071800Y0009800D01*
X0079060Y0009800D01*
X0061131Y0022131D02*
X0061131Y0057745D01*
X0058648Y0059002D02*
X0058648Y0060293D01*
X0059468Y0061113D01*
X0069975Y0061113D01*
X0069354Y0051354D02*
X0070963Y0051354D01*
X0074025Y0051354D02*
X0075575Y0051354D01*
X0078845Y0049755D02*
X0067755Y0049755D01*
X0063331Y0048157D02*
X0080443Y0048157D01*
X0082042Y0046558D02*
X0063331Y0046558D01*
X0063331Y0044960D02*
X0083640Y0044960D01*
X0094417Y0033770D02*
X0063331Y0033770D01*
X0063331Y0032172D02*
X0094000Y0032172D01*
X0094152Y0030573D02*
X0063331Y0030573D01*
X0058931Y0030573D02*
X0027271Y0030573D01*
X0027248Y0030643D02*
X0026905Y0031316D01*
X0026461Y0031927D01*
X0025927Y0032461D01*
X0025316Y0032905D01*
X0024643Y0033248D01*
X0023924Y0033482D01*
X0023178Y0033600D01*
X0020000Y0033600D01*
X0020000Y0029000D01*
X0019600Y0029000D01*
X0019600Y0033600D01*
X0016422Y0033600D01*
X0015676Y0033482D01*
X0014957Y0033248D01*
X0014284Y0032905D01*
X0013673Y0032461D01*
X0013139Y0031927D01*
X0012695Y0031316D01*
X0012352Y0030643D01*
X0012118Y0029924D01*
X0012000Y0029178D01*
X0012000Y0029000D01*
X0019600Y0029000D01*
X0019600Y0028600D01*
X0020000Y0028600D01*
X0020000Y0029000D01*
X0027600Y0029000D01*
X0027600Y0029178D01*
X0027482Y0029924D01*
X0027248Y0030643D01*
X0026216Y0032172D02*
X0058931Y0032172D01*
X0058931Y0033770D02*
X0012000Y0033770D01*
X0012000Y0032172D02*
X0013384Y0032172D01*
X0012329Y0030573D02*
X0012000Y0030573D01*
X0012000Y0028975D02*
X0019600Y0028975D01*
X0019800Y0028800D02*
X0019800Y0038800D01*
X0038312Y0038800D01*
X0041800Y0042288D01*
X0042312Y0042800D01*
X0052800Y0042800D01*
X0057391Y0047391D01*
X0057391Y0057745D01*
X0058648Y0059002D01*
X0057391Y0057745D02*
X0056133Y0059002D01*
X0056133Y0060293D01*
X0055313Y0061113D01*
X0052751Y0061113D01*
X0041731Y0072133D01*
X0041731Y0087467D01*
X0031726Y0078529D02*
X0030126Y0078529D01*
X0030126Y0076930D02*
X0031726Y0076930D01*
X0031726Y0075332D02*
X0030126Y0075332D01*
X0030126Y0073733D02*
X0031726Y0073733D01*
X0031726Y0072134D02*
X0030126Y0072134D01*
X0025800Y0079800D02*
X0019800Y0085800D01*
X0019800Y0066800D01*
X0019800Y0056800D01*
X0038312Y0056800D01*
X0041800Y0053312D01*
X0046233Y0057745D01*
X0053650Y0057745D01*
X0058931Y0048800D02*
X0045961Y0048800D01*
X0045923Y0048762D01*
X0037677Y0048762D01*
X0037639Y0048800D01*
X0033800Y0048800D01*
X0028800Y0043800D01*
X0012000Y0043800D01*
X0012000Y0025600D01*
X0018800Y0018800D01*
X0029800Y0018800D01*
X0029800Y0020800D01*
X0038800Y0029800D01*
X0058931Y0029800D01*
X0058931Y0048800D01*
X0058931Y0048157D02*
X0033157Y0048157D01*
X0031558Y0046558D02*
X0036832Y0046558D01*
X0036816Y0046543D02*
X0036579Y0046133D01*
X0036457Y0045675D01*
X0036457Y0043063D01*
X0041025Y0043063D01*
X0041025Y0041513D01*
X0042575Y0041513D01*
X0042575Y0037339D01*
X0045580Y0037339D01*
X0046038Y0037461D01*
X0046449Y0037698D01*
X0046784Y0038033D01*
X0047021Y0038444D01*
X0047143Y0038902D01*
X0047143Y0041513D01*
X0042575Y0041513D01*
X0042575Y0043063D01*
X0047143Y0043063D01*
X0047143Y0045675D01*
X0047021Y0046133D01*
X0046784Y0046543D01*
X0046449Y0046878D01*
X0046038Y0047115D01*
X0045580Y0047238D01*
X0042575Y0047238D01*
X0042575Y0043063D01*
X0041025Y0043063D01*
X0041025Y0047238D01*
X0038020Y0047238D01*
X0037562Y0047115D01*
X0037151Y0046878D01*
X0036816Y0046543D01*
X0036457Y0044960D02*
X0029960Y0044960D01*
X0027157Y0048157D02*
X0007472Y0048157D01*
X0006600Y0049755D02*
X0028755Y0049755D01*
X0025316Y0042905D02*
X0024643Y0043248D01*
X0023924Y0043482D01*
X0023178Y0043600D01*
X0020000Y0043600D01*
X0020000Y0039000D01*
X0019600Y0039000D01*
X0019600Y0043600D01*
X0016422Y0043600D01*
X0015676Y0043482D01*
X0014957Y0043248D01*
X0014284Y0042905D01*
X0013673Y0042461D01*
X0013139Y0041927D01*
X0012695Y0041316D01*
X0012352Y0040643D01*
X0012118Y0039924D01*
X0012000Y0039178D01*
X0012000Y0039000D01*
X0019600Y0039000D01*
X0019600Y0038600D01*
X0020000Y0038600D01*
X0020000Y0039000D01*
X0027600Y0039000D01*
X0027600Y0039178D01*
X0027482Y0039924D01*
X0027248Y0040643D01*
X0026905Y0041316D01*
X0026461Y0041927D01*
X0025927Y0042461D01*
X0025316Y0042905D01*
X0024295Y0043361D02*
X0036457Y0043361D01*
X0036457Y0041513D02*
X0036457Y0038902D01*
X0036579Y0038444D01*
X0036816Y0038033D01*
X0037151Y0037698D01*
X0037562Y0037461D01*
X0038020Y0037339D01*
X0041025Y0037339D01*
X0041025Y0041513D01*
X0036457Y0041513D01*
X0036457Y0040164D02*
X0027404Y0040164D01*
X0026581Y0041763D02*
X0041025Y0041763D01*
X0041025Y0043361D02*
X0042575Y0043361D01*
X0042575Y0041763D02*
X0058931Y0041763D01*
X0058931Y0043361D02*
X0047143Y0043361D01*
X0047143Y0044960D02*
X0058931Y0044960D01*
X0058931Y0046558D02*
X0046768Y0046558D01*
X0042575Y0046558D02*
X0041025Y0046558D01*
X0041025Y0044960D02*
X0042575Y0044960D01*
X0042575Y0040164D02*
X0041025Y0040164D01*
X0041025Y0038566D02*
X0042575Y0038566D01*
X0047053Y0038566D02*
X0058931Y0038566D01*
X0058931Y0036967D02*
X0027252Y0036967D01*
X0027248Y0036957D02*
X0027482Y0037676D01*
X0027600Y0038422D01*
X0027600Y0038600D01*
X0020000Y0038600D01*
X0020000Y0034000D01*
X0023178Y0034000D01*
X0023924Y0034118D01*
X0024643Y0034352D01*
X0025316Y0034695D01*
X0025927Y0035139D01*
X0026461Y0035673D01*
X0026905Y0036284D01*
X0027248Y0036957D01*
X0027600Y0038566D02*
X0036547Y0038566D01*
X0037975Y0028975D02*
X0020000Y0028975D01*
X0020000Y0028600D02*
X0027600Y0028600D01*
X0027600Y0028422D01*
X0027482Y0027676D01*
X0027248Y0026957D01*
X0026905Y0026284D01*
X0026461Y0025673D01*
X0025927Y0025139D01*
X0025316Y0024695D01*
X0024643Y0024352D01*
X0023924Y0024118D01*
X0023178Y0024000D01*
X0020000Y0024000D01*
X0020000Y0028600D01*
X0019600Y0028600D02*
X0019600Y0024000D01*
X0016422Y0024000D01*
X0015676Y0024118D01*
X0014957Y0024352D01*
X0014284Y0024695D01*
X0013673Y0025139D01*
X0013139Y0025673D01*
X0012695Y0026284D01*
X0012352Y0026957D01*
X0012118Y0027676D01*
X0012000Y0028422D01*
X0012000Y0028600D01*
X0019600Y0028600D01*
X0019600Y0027376D02*
X0020000Y0027376D01*
X0020000Y0025778D02*
X0019600Y0025778D01*
X0019600Y0024179D02*
X0020000Y0024179D01*
X0024112Y0024179D02*
X0033179Y0024179D01*
X0031581Y0022581D02*
X0015019Y0022581D01*
X0015488Y0024179D02*
X0013421Y0024179D01*
X0013063Y0025778D02*
X0012000Y0025778D01*
X0012000Y0027376D02*
X0012216Y0027376D01*
X0009800Y0022060D02*
X0009800Y0047800D01*
X0018800Y0056800D01*
X0019800Y0056800D01*
X0019600Y0056149D02*
X0020000Y0056149D01*
X0020000Y0057748D02*
X0019600Y0057748D01*
X0019600Y0059346D02*
X0020000Y0059346D01*
X0020000Y0060945D02*
X0019600Y0060945D01*
X0019600Y0062543D02*
X0020000Y0062543D01*
X0020000Y0064142D02*
X0019600Y0064142D01*
X0019600Y0065740D02*
X0020000Y0065740D01*
X0020000Y0067339D02*
X0019600Y0067339D01*
X0019600Y0068937D02*
X0020000Y0068937D01*
X0020000Y0070536D02*
X0019600Y0070536D01*
X0019600Y0081726D02*
X0020000Y0081726D01*
X0020000Y0083324D02*
X0019600Y0083324D01*
X0019600Y0084923D02*
X0020000Y0084923D01*
X0019800Y0085800D02*
X0019800Y0095800D01*
X0019600Y0096112D02*
X0020000Y0096112D01*
X0020000Y0097711D02*
X0019600Y0097711D01*
X0019600Y0099309D02*
X0020000Y0099309D01*
X0020000Y0094514D02*
X0019600Y0094514D01*
X0019600Y0092915D02*
X0020000Y0092915D01*
X0020000Y0091317D02*
X0019600Y0091317D01*
X0019600Y0089718D02*
X0020000Y0089718D01*
X0020000Y0088120D02*
X0019600Y0088120D01*
X0019600Y0086521D02*
X0020000Y0086521D01*
X0025358Y0081726D02*
X0025583Y0081726D01*
X0040508Y0102506D02*
X0006600Y0102506D01*
X0019600Y0054551D02*
X0020000Y0054551D01*
X0020000Y0052952D02*
X0019600Y0052952D01*
X0019600Y0043361D02*
X0020000Y0043361D01*
X0020000Y0041763D02*
X0019600Y0041763D01*
X0019600Y0040164D02*
X0020000Y0040164D01*
X0020000Y0038566D02*
X0019600Y0038566D01*
X0019600Y0038600D02*
X0019600Y0034000D01*
X0016422Y0034000D01*
X0015676Y0034118D01*
X0014957Y0034352D01*
X0014284Y0034695D01*
X0013673Y0035139D01*
X0013139Y0035673D01*
X0012695Y0036284D01*
X0012352Y0036957D01*
X0012118Y0037676D01*
X0012000Y0038422D01*
X0012000Y0038600D01*
X0019600Y0038600D01*
X0019600Y0036967D02*
X0020000Y0036967D01*
X0020000Y0035369D02*
X0019600Y0035369D01*
X0019600Y0032172D02*
X0020000Y0032172D01*
X0020000Y0030573D02*
X0019600Y0030573D01*
X0013443Y0035369D02*
X0012000Y0035369D01*
X0012000Y0036967D02*
X0012348Y0036967D01*
X0012000Y0038566D02*
X0012000Y0038566D01*
X0012000Y0040164D02*
X0012196Y0040164D01*
X0012000Y0041763D02*
X0013019Y0041763D01*
X0012000Y0043361D02*
X0015305Y0043361D01*
X0026157Y0035369D02*
X0058931Y0035369D01*
X0063331Y0035369D02*
X0095581Y0035369D01*
X0101600Y0035369D02*
X0102000Y0035369D01*
X0102000Y0033770D02*
X0101600Y0033770D01*
X0108019Y0035369D02*
X0115110Y0035369D01*
X0115110Y0036967D02*
X0063331Y0036967D01*
X0063331Y0038566D02*
X0115110Y0038566D01*
X0115110Y0040164D02*
X0063331Y0040164D01*
X0063331Y0041763D02*
X0113837Y0041763D01*
X0112239Y0043361D02*
X0063331Y0043361D01*
X0058931Y0040164D02*
X0047143Y0040164D01*
X0036376Y0027376D02*
X0027384Y0027376D01*
X0026537Y0025778D02*
X0034778Y0025778D01*
X0029982Y0020982D02*
X0016618Y0020982D01*
X0018216Y0019384D02*
X0029800Y0019384D01*
X0038800Y0019800D02*
X0038800Y0010800D01*
X0036800Y0008800D01*
X0030540Y0008800D01*
X0023060Y0008800D02*
X0009800Y0022060D01*
X0048800Y0019800D02*
X0058800Y0019800D01*
X0061131Y0022131D01*
X0101600Y0020982D02*
X0102000Y0020982D01*
X0102000Y0021600D02*
X0102000Y0017000D01*
X0105178Y0017000D01*
X0105924Y0017118D01*
X0106643Y0017352D01*
X0107316Y0017695D01*
X0107927Y0018139D01*
X0108461Y0018673D01*
X0108905Y0019284D01*
X0109248Y0019957D01*
X0109482Y0020676D01*
X0109600Y0021422D01*
X0109600Y0021600D01*
X0102000Y0021600D01*
X0102000Y0019384D02*
X0101600Y0019384D01*
X0101600Y0017785D02*
X0102000Y0017785D01*
X0107440Y0017785D02*
X0108787Y0017785D01*
X0108956Y0019384D02*
X0115110Y0019384D01*
X0115110Y0020982D02*
X0109530Y0020982D01*
X0109536Y0022581D02*
X0115110Y0022581D01*
X0115110Y0024179D02*
X0108975Y0024179D01*
X0107491Y0025778D02*
X0115110Y0025778D01*
X0115110Y0027376D02*
X0106691Y0027376D01*
X0108680Y0028975D02*
X0115110Y0028975D01*
X0115110Y0030573D02*
X0109448Y0030573D01*
X0109600Y0032172D02*
X0115110Y0032172D01*
X0115110Y0033770D02*
X0109183Y0033770D01*
X0115110Y0075332D02*
X0057800Y0075332D01*
X0057930Y0076930D02*
X0115110Y0076930D01*
X0115110Y0078529D02*
X0059529Y0078529D01*
X0061127Y0080127D02*
X0115110Y0080127D01*
X0115110Y0081726D02*
X0062726Y0081726D01*
X0064324Y0083324D02*
X0093488Y0083324D01*
X0093673Y0083139D02*
X0093139Y0083673D01*
X0092695Y0084284D01*
X0092352Y0084957D01*
X0092118Y0085676D01*
X0092000Y0086422D01*
X0092000Y0086600D01*
X0099600Y0086600D01*
X0100000Y0086600D01*
X0100000Y0087000D01*
X0099600Y0087000D01*
X0099600Y0091600D01*
X0096422Y0091600D01*
X0095676Y0091482D01*
X0094957Y0091248D01*
X0094284Y0090905D01*
X0093673Y0090461D01*
X0093139Y0089927D01*
X0092695Y0089316D01*
X0092352Y0088643D01*
X0092118Y0087924D01*
X0092000Y0087178D01*
X0092000Y0087000D01*
X0099600Y0087000D01*
X0099600Y0086600D01*
X0099600Y0082000D01*
X0096422Y0082000D01*
X0095676Y0082118D01*
X0094957Y0082352D01*
X0094284Y0082695D01*
X0093673Y0083139D01*
X0092369Y0084923D02*
X0065800Y0084923D01*
X0065800Y0086521D02*
X0092000Y0086521D01*
X0092182Y0088120D02*
X0065800Y0088120D01*
X0065800Y0089718D02*
X0092987Y0089718D01*
X0095168Y0091317D02*
X0065800Y0091317D01*
X0065800Y0092915D02*
X0093981Y0092915D01*
X0094284Y0092695D02*
X0094957Y0092352D01*
X0095676Y0092118D01*
X0096422Y0092000D01*
X0099600Y0092000D01*
X0099600Y0096600D01*
X0100000Y0096600D01*
X0100000Y0097000D01*
X0099600Y0097000D01*
X0099600Y0101600D01*
X0096422Y0101600D01*
X0095676Y0101482D01*
X0094957Y0101248D01*
X0094284Y0100905D01*
X0093673Y0100461D01*
X0093139Y0099927D01*
X0092695Y0099316D01*
X0092352Y0098643D01*
X0092118Y0097924D01*
X0092000Y0097178D01*
X0092000Y0097000D01*
X0099600Y0097000D01*
X0099600Y0096600D01*
X0092000Y0096600D01*
X0092000Y0096422D01*
X0092118Y0095676D01*
X0092352Y0094957D01*
X0092695Y0094284D01*
X0093139Y0093673D01*
X0093673Y0093139D01*
X0094284Y0092695D01*
X0092578Y0094514D02*
X0065800Y0094514D01*
X0065800Y0096112D02*
X0092049Y0096112D01*
X0092084Y0097711D02*
X0065800Y0097711D01*
X0065800Y0099309D02*
X0092691Y0099309D01*
X0094289Y0100908D02*
X0065800Y0100908D01*
X0065800Y0102506D02*
X0115110Y0102506D01*
X0115110Y0100908D02*
X0105311Y0100908D01*
X0105316Y0100905D02*
X0104643Y0101248D01*
X0103924Y0101482D01*
X0103178Y0101600D01*
X0100000Y0101600D01*
X0100000Y0097000D01*
X0107600Y0097000D01*
X0107600Y0097178D01*
X0107482Y0097924D01*
X0107248Y0098643D01*
X0106905Y0099316D01*
X0106461Y0099927D01*
X0105927Y0100461D01*
X0105316Y0100905D01*
X0106909Y0099309D02*
X0115110Y0099309D01*
X0115110Y0097711D02*
X0107516Y0097711D01*
X0107600Y0096600D02*
X0100000Y0096600D01*
X0100000Y0092000D01*
X0103178Y0092000D01*
X0103924Y0092118D01*
X0104643Y0092352D01*
X0105316Y0092695D01*
X0105927Y0093139D01*
X0106461Y0093673D01*
X0106905Y0094284D01*
X0107248Y0094957D01*
X0107482Y0095676D01*
X0107600Y0096422D01*
X0107600Y0096600D01*
X0107551Y0096112D02*
X0115110Y0096112D01*
X0115110Y0094514D02*
X0107022Y0094514D01*
X0105619Y0092915D02*
X0115110Y0092915D01*
X0115110Y0091317D02*
X0104432Y0091317D01*
X0104643Y0091248D02*
X0103924Y0091482D01*
X0103178Y0091600D01*
X0100000Y0091600D01*
X0100000Y0087000D01*
X0107600Y0087000D01*
X0107600Y0087178D01*
X0107482Y0087924D01*
X0107248Y0088643D01*
X0106905Y0089316D01*
X0106461Y0089927D01*
X0105927Y0090461D01*
X0105316Y0090905D01*
X0104643Y0091248D01*
X0106613Y0089718D02*
X0115110Y0089718D01*
X0115110Y0088120D02*
X0107418Y0088120D01*
X0107600Y0086600D02*
X0100000Y0086600D01*
X0100000Y0082000D01*
X0103178Y0082000D01*
X0103924Y0082118D01*
X0104643Y0082352D01*
X0105316Y0082695D01*
X0105927Y0083139D01*
X0106461Y0083673D01*
X0106905Y0084284D01*
X0107248Y0084957D01*
X0107482Y0085676D01*
X0107600Y0086422D01*
X0107600Y0086600D01*
X0107600Y0086521D02*
X0115110Y0086521D01*
X0115110Y0084923D02*
X0107231Y0084923D01*
X0106112Y0083324D02*
X0115110Y0083324D01*
X0100000Y0083324D02*
X0099600Y0083324D01*
X0099600Y0084923D02*
X0100000Y0084923D01*
X0100000Y0086521D02*
X0099600Y0086521D01*
X0099600Y0088120D02*
X0100000Y0088120D01*
X0100000Y0089718D02*
X0099600Y0089718D01*
X0099600Y0091317D02*
X0100000Y0091317D01*
X0100000Y0092915D02*
X0099600Y0092915D01*
X0099600Y0094514D02*
X0100000Y0094514D01*
X0100000Y0096112D02*
X0099600Y0096112D01*
X0099600Y0097711D02*
X0100000Y0097711D01*
X0100000Y0099309D02*
X0099600Y0099309D01*
X0099600Y0100908D02*
X0100000Y0100908D01*
X0108354Y0104105D02*
X0065800Y0104105D01*
X0069061Y0107302D02*
X0070020Y0107302D01*
X0070020Y0108900D02*
X0069061Y0108900D01*
X0073899Y0112097D02*
X0091503Y0112097D01*
X0089904Y0113696D02*
X0073899Y0113696D01*
M02*
