%
M48
M72
T01C0.04000
T02C0.07874
%
T01
X19800Y28800
X19800Y38800
X19800Y56800
X19800Y66800
X19800Y85800
X19800Y95800
X38800Y19800
X48800Y19800
X58800Y19800
X68800Y19800
X101800Y21800
X101800Y31800
X99800Y54800
X99800Y64800
X99800Y86800
X99800Y96800
T02
X9674Y9674
X9674Y112036
X112036Y112036
X112036Y9674
M30
